<?xml version="1.0" encoding="UTF-8" standalone="no"?>
<!-- Created with Inkscape (http://www.inkscape.org/) -->

<svg
   xmlns:dc="http://purl.org/dc/elements/1.1/"
   xmlns:cc="http://creativecommons.org/ns#"
   xmlns:rdf="http://www.w3.org/1999/02/22-rdf-syntax-ns#"
   xmlns:svg="http://www.w3.org/2000/svg"
   xmlns="http://www.w3.org/2000/svg"
   xmlns:sodipodi="http://sodipodi.sourceforge.net/DTD/sodipodi-0.dtd"
   xmlns:inkscape="http://www.inkscape.org/namespaces/inkscape"
   width="437.61301mm"
   height="38.042999mm"
   viewBox="0 0 437.61301 38.042999"
   version="1.1"
   id="svg8"
   inkscape:version="0.92.3 (2405546, 2018-03-11)"
   sodipodi:docname="fgsm.svg">
  <sodipodi:namedview
     id="base"
     pagecolor="#ffffff"
     bordercolor="#666666"
     borderopacity="1.0"
     inkscape:pageopacity="0.0"
     inkscape:pageshadow="2"
     inkscape:zoom="0.35"
     inkscape:cx="-365.58731"
     inkscape:cy="-79.779527"
     inkscape:document-units="mm"
     inkscape:current-layer="layer1"
     showgrid="false"
     inkscape:window-width="1920"
     inkscape:window-height="1017"
     inkscape:window-x="0"
     inkscape:window-y="30"
     inkscape:window-maximized="1" />
  <defs
     id="defs2" />
  <metadata
     id="metadata5">
    <rdf:RDF>
      <cc:Work
         rdf:about="">
        <dc:format>image/svg+xml</dc:format>
        <dc:type
           rdf:resource="http://purl.org/dc/dcmitype/StillImage" />
        <dc:title></dc:title>
      </cc:Work>
    </rdf:RDF>
  </metadata>
  <g
     inkscape:label="Layer 1"
     inkscape:groupmode="layer"
     id="layer1"
     transform="translate(-85.767,-89.682)">
    <g
       id="g1230">
      <g
         word-spacing="normal"
         letter-spacing="normal"
         font-size-adjust="none"
         font-stretch="normal"
         font-weight="normal"
         font-variant="normal"
         font-style="normal"
         stroke-miterlimit="10.433"
         xml:space="preserve"
         transform="matrix(0.3,0,0,-0.3,-52.5,222.75)"
         id="content"
         style="font-style:normal;font-variant:normal;font-weight:normal;font-stretch:normal;letter-spacing:normal;word-spacing:normal;text-anchor:start;fill:none;fill-opacity:1;fill-rule:evenodd;stroke:#000000;stroke-linecap:butt;stroke-linejoin:miter;stroke-miterlimit:10.43299961;stroke-dasharray:none;stroke-dashoffset:0;stroke-opacity:1"><path
           id="path1047"
           d="m 472.91,409.14 0.06,-0.23 0.06,-0.21 0.07,-0.21 0.07,-0.2 0.09,-0.2 0.09,-0.18 0.09,-0.18 0.1,-0.17 0.11,-0.16 0.11,-0.15 0.12,-0.15 0.12,-0.14 0.12,-0.13 0.13,-0.12 0.14,-0.12 0.14,-0.11 0.14,-0.1 0.14,-0.1 0.15,-0.09 0.15,-0.08 0.15,-0.07 0.16,-0.07 0.16,-0.06 0.16,-0.06 0.16,-0.04 0.16,-0.05 0.16,-0.03 0.16,-0.03 0.17,-0.02 0.16,-0.02 h 0.16 l 0.17,-0.01 c 1.84,0 2.89,1.25 3.64,2.78 0.9,1.91 1.5,4.8 1.5,4.89 0,0.5 -0.41,0.5 -0.75,0.5 -0.6,0 -0.64,-0.04 -0.96,-1.14 -0.68,-2.79 -1.64,-5.93 -3.33,-5.93 -1.29,0 -1.29,1.34 -1.29,2.04 0,0.35 0,1.14 0.34,2.53 l 3.39,13.57 c 0.21,0.68 0.21,0.79 0.21,1.04 0,1.05 -0.85,1.3 -1.35,1.3 -1.59,0 -1.95,-1.7 -2,-1.95 -0.94,2.14 -2.53,2.93 -4.12,2.93 v -1.09 c 2.18,0 3.43,-2.59 3.43,-4.69 0,-0.09 -0.06,-0.34 -0.15,-0.64 v 0 l -2.35,-9.42 c -0.39,-1.59 -3.48,-5.62 -6.21,-5.62 -2.35,0 -2.75,2.93 -2.75,4.43 0,2.49 1.54,8.32 2.43,10.41 1.25,3.05 3.55,5.53 5.6,5.53 v 1.09 c -5.53,0 -11.43,-7.56 -11.43,-14.84 0,-4.23 2.3,-7.72 6.04,-7.72 1.79,0 3.98,1.05 5.98,3.49 z"
           inkscape:connector-curvature="0"
           style="fill:#000000;stroke-width:0" /><path
           id="path1049"
           d="m 508.71,439.53 v 0.01 l 0.01,0.02 v 0.02 l 0.01,0.02 v 0.02 l 0.01,0.02 v 0.02 l 0.01,0.02 0.01,0.02 v 0.03 l 0.02,0.04 0.01,0.05 0.01,0.05 0.01,0.05 0.01,0.03 0.01,0.02 v 0.02 l 0.01,0.02 v 0.03 l 0.01,0.02 v 0.02 0.02 l 0.01,0.01 v 0.02 0.02 0.01 0.01 0.01 c 0,0.44 -0.31,0.6 -0.7,0.6 -0.16,0 -0.64,-0.05 -0.8,-0.11 l -4.93,-0.39 c -0.6,-0.05 -1.14,-0.1 -1.14,-1.05 0,-0.55 0.5,-0.55 1.18,-0.55 2.41,0 2.5,-0.34 2.5,-0.84 0,-0.16 -0.15,-0.8 -0.15,-0.84 l -2.89,-11.68 c -0.74,1.55 -2.1,2.89 -4.18,2.89 v -1.09 c 0.39,0 1.54,-0.05 2.44,-1.44 0.5,-0.79 1,-2.25 1,-3.18 0,-0.16 -0.06,-0.36 -0.15,-0.66 l -2.4,-9.56 c -0.4,-1.55 -3.43,-5.53 -6.17,-5.53 -2.34,0 -2.75,2.93 -2.75,4.43 0,2.49 1.55,8.32 2.44,10.41 1.25,3.05 3.55,5.53 5.59,5.53 v 1.09 c -5.53,0 -11.42,-7.56 -11.42,-14.84 0,-4.23 2.3,-7.72 6.03,-7.72 1.8,0 3.99,1.05 5.99,3.49 0.54,-2.44 2.39,-3.49 4.12,-3.49 1.85,0 2.89,1.25 3.64,2.78 0.91,1.91 1.5,4.8 1.5,4.89 0,0.5 -0.4,0.5 -0.75,0.5 -0.59,0 -0.64,-0.04 -0.95,-1.14 -0.69,-2.79 -1.64,-5.93 -3.33,-5.93 -1.29,0 -1.29,1.34 -1.29,2.04 0,0.35 0,1.1 0.29,2.28 z"
           inkscape:connector-curvature="0"
           style="fill:#000000;stroke-width:0" /><path
           id="path1051"
           d="m 530.96,424.93 v 0.17 l -0.01,0.16 -0.01,0.16 -0.01,0.16 -0.02,0.15 -0.02,0.16 -0.02,0.15 -0.03,0.14 -0.03,0.15 -0.04,0.14 -0.03,0.14 -0.05,0.13 -0.04,0.13 -0.06,0.13 -0.05,0.12 -0.06,0.11 -0.07,0.11 -0.06,0.11 -0.08,0.09 -0.07,0.1 -0.09,0.09 -0.08,0.08 -0.09,0.07 -0.1,0.07 -0.1,0.06 -0.1,0.05 -0.11,0.05 -0.11,0.04 -0.12,0.03 -0.13,0.02 -0.13,0.01 h -0.13 c -1.14,0 -2.39,-1.14 -2.39,-2.28 0,-0.65 0.36,-1 0.66,-1.34 1.18,-1.3 1.34,-2.89 1.34,-3.94 0,-1.4 -2.34,-13.9 -8.08,-13.9 -2.69,0 -3.23,2.5 -3.23,4.14 0,2.89 1.59,7.22 2.94,10.81 0.25,0.8 0.54,1.53 0.54,2.48 0,2.5 -1.64,4.03 -3.78,4.03 -4.64,0 -6.37,-7.37 -6.37,-7.67 0,-0.5 0.5,-0.5 0.73,-0.5 0.66,0 0.7,0.11 0.91,0.8 0.39,1.55 1.73,6.28 4.62,6.28 0.55,0 1.11,-0.14 1.11,-1.44 0,-1.2 -0.5,-2.54 -1.2,-4.48 -1.55,-4.24 -2.55,-7.24 -2.55,-9.56 0,-4.55 3.19,-5.99 6.14,-5.99 8.36,0 10.66,17.99 10.66,19.28 z"
           inkscape:connector-curvature="0"
           style="fill:#000000;stroke-width:0" /><path
           id="path1053"
           d="m 541.22,417.71 0.14,0.01 h 0.16 0.17 0.17 l 0.19,0.01 h 0.19 l 0.2,0.01 0.2,0.01 0.22,0.01 0.22,0.02 0.22,0.01 0.23,0.02 0.48,0.04 0.48,0.05 0.5,0.07 0.51,0.07 0.51,0.09 0.5,0.11 0.5,0.11 0.25,0.07 0.24,0.07 0.24,0.07 0.24,0.08 0.23,0.08 0.23,0.09 c 3.94,1.59 3.94,4.83 3.94,5.17 0,2.3 -1.85,4.23 -5.04,4.23 v -1.09 c 2,0 3.14,-1.34 3.14,-3.03 0,-5.28 -8.21,-5.28 -9.86,-5.28 h -1.04 c 2.14,8.17 7.26,8.31 7.76,8.31 v 1.09 c -5.23,0 -12.36,-5.03 -12.36,-13.84 0,-4.48 2.41,-8.72 7.13,-8.72 6.39,0 10.51,4.99 10.51,5.74 0,0.25 -0.39,0.79 -0.79,0.79 -0.21,0 -0.25,-0.06 -0.64,-0.54 -3.69,-4.69 -8.13,-4.89 -8.97,-4.89 -3.24,0 -3.78,3.53 -3.78,5.48 0,1.89 0.48,4.13 0.84,5.48 z"
           inkscape:connector-curvature="0"
           style="fill:#000000;stroke-width:0" /><path
           id="path1055"
           d="m 565.09,420.54 v 0.01 l 0.01,0.03 0.01,0.02 0.01,0.04 0.02,0.05 0.02,0.05 0.02,0.06 0.03,0.07 0.03,0.08 0.03,0.08 0.04,0.08 0.04,0.1 0.08,0.2 0.1,0.23 0.12,0.24 0.12,0.26 0.14,0.27 0.15,0.28 0.16,0.29 0.18,0.3 0.18,0.31 0.21,0.3 0.21,0.3 0.22,0.31 0.24,0.29 0.25,0.29 0.26,0.28 0.28,0.27 0.28,0.25 0.3,0.24 0.32,0.21 0.32,0.2 0.17,0.09 0.17,0.08 0.17,0.08 0.17,0.06 0.18,0.07 0.18,0.05 0.19,0.05 0.19,0.04 0.19,0.03 0.19,0.02 0.2,0.02 h 0.2 c 0.23,0 1.64,0 2.64,-0.69 -1.75,-0.56 -1.91,-2.15 -1.91,-2.39 0,-0.65 0.45,-1.61 1.75,-1.61 0.89,0 2.44,0.71 2.44,2.64 0,2.6 -3.24,3.14 -4.87,3.14 -3.44,0 -5.24,-2.48 -6.04,-3.57 -0.54,2.64 -2.5,3.57 -4.14,3.57 -1.79,0 -2.78,-1.14 -3.57,-2.64 -0.96,-1.98 -1.6,-4.92 -1.6,-5.03 0,-0.5 0.5,-0.5 0.73,-0.5 0.66,0 0.71,0.07 0.96,1.16 0.89,3.48 1.84,5.92 3.39,5.92 1.3,0 1.3,-1.44 1.3,-1.98 0,-0.8 -0.16,-1.75 -0.36,-2.55 l -3.74,-14.95 c -0.09,-0.3 -0.14,-0.55 -0.14,-0.69 0,-0.55 0.39,-1.3 1.39,-1.3 1.5,0 1.85,1.44 1.94,1.85 z"
           inkscape:connector-curvature="0"
           style="fill:#000000;stroke-width:0" /><path
           id="path1057"
           d="m 585.54,416.01 0.41,-0.09 0.41,-0.1 0.4,-0.1 0.2,-0.06 0.19,-0.06 0.2,-0.06 0.18,-0.06 0.19,-0.07 0.18,-0.08 0.18,-0.07 0.17,-0.09 0.16,-0.09 0.16,-0.09 0.15,-0.1 0.15,-0.11 0.14,-0.12 0.13,-0.12 0.12,-0.13 0.12,-0.14 0.1,-0.15 0.1,-0.16 0.08,-0.16 0.08,-0.18 0.07,-0.19 0.05,-0.2 0.04,-0.21 0.04,-0.22 0.01,-0.11 v -0.12 l 0.01,-0.12 v -0.13 c 0,-1.59 -1.34,-5.57 -6.47,-5.57 -1.09,0 -3.98,0.25 -4.78,2.79 2.53,0.25 2.53,2.33 2.53,2.44 0,0.94 -0.64,1.59 -1.69,1.59 -1.14,0 -2.54,-0.84 -2.54,-3.09 0,-3.03 2.89,-4.83 6.44,-4.83 7.46,0 9.35,6.08 9.35,8.38 0,4.33 -3.89,5.22 -5.92,5.67 -1.4,0.3 -3.18,0.7 -3.18,2.84 0,1.19 1.04,4.58 5.03,4.58 1.34,0 3.18,-0.5 3.73,-2.44 -1.59,-0.2 -2,-1.54 -2,-2.04 0,-0.55 0.3,-1.39 1.5,-1.39 0.84,0 2.14,0.59 2.14,2.73 0,2.3 -2.05,4.23 -5.33,4.23 -5.82,0 -7.87,-4.78 -7.87,-7.37 0,-3.83 3.23,-4.53 4.64,-4.83 z"
           inkscape:connector-curvature="0"
           style="fill:#000000;stroke-width:0" /><path
           id="path1059"
           d="m 611.02,409.14 0.05,-0.23 0.06,-0.21 0.07,-0.21 0.08,-0.2 0.08,-0.2 0.09,-0.18 0.1,-0.18 0.1,-0.17 0.1,-0.16 0.12,-0.15 0.11,-0.15 0.12,-0.14 0.13,-0.13 0.13,-0.12 0.13,-0.12 0.14,-0.11 0.14,-0.1 0.15,-0.1 0.15,-0.09 0.15,-0.08 0.15,-0.07 0.16,-0.07 0.15,-0.06 0.16,-0.06 0.16,-0.04 0.16,-0.05 0.17,-0.03 0.16,-0.03 0.16,-0.02 0.16,-0.02 h 0.17 l 0.16,-0.01 c 1.84,0 2.89,1.25 3.64,2.78 0.91,1.91 1.5,4.8 1.5,4.89 0,0.5 -0.4,0.5 -0.75,0.5 -0.59,0 -0.64,-0.04 -0.95,-1.14 -0.69,-2.79 -1.64,-5.93 -3.33,-5.93 -1.3,0 -1.3,1.34 -1.3,2.04 0,0.35 0,1.14 0.35,2.53 l 3.39,13.57 c 0.2,0.68 0.2,0.79 0.2,1.04 0,1.05 -0.84,1.3 -1.34,1.3 -1.6,0 -1.96,-1.7 -2,-1.95 -0.94,2.14 -2.53,2.93 -4.13,2.93 v -1.09 c 2.19,0 3.44,-2.59 3.44,-4.69 0,-0.09 -0.06,-0.34 -0.16,-0.64 v 0 l -2.34,-9.42 c -0.39,-1.59 -3.48,-5.62 -6.22,-5.62 -2.34,0 -2.75,2.93 -2.75,4.43 0,2.49 1.55,8.32 2.44,10.41 1.25,3.05 3.55,5.53 5.59,5.53 v 1.09 c -5.53,0 -11.42,-7.56 -11.42,-14.84 0,-4.23 2.3,-7.72 6.03,-7.72 1.8,0 3.99,1.05 5.99,3.49 z"
           inkscape:connector-curvature="0"
           style="fill:#000000;stroke-width:0" /><path
           id="path1061"
           d="m 631.92,420.54 0.01,0.01 v 0.03 l 0.01,0.02 0.02,0.04 0.01,0.05 0.02,0.05 0.03,0.06 0.02,0.07 0.03,0.08 0.03,0.08 0.04,0.08 0.04,0.1 0.09,0.2 0.1,0.23 0.11,0.24 0.12,0.26 0.14,0.27 0.15,0.28 0.16,0.29 0.18,0.3 0.19,0.31 0.2,0.3 0.21,0.3 0.23,0.31 0.23,0.29 0.25,0.29 0.27,0.28 0.27,0.27 0.29,0.25 0.3,0.24 0.31,0.21 0.32,0.2 0.17,0.09 0.17,0.08 0.17,0.08 0.18,0.06 0.17,0.07 0.19,0.05 0.18,0.05 0.19,0.04 0.19,0.03 0.19,0.02 0.2,0.02 h 0.2 c 0.23,0 1.64,0 2.64,-0.69 -1.75,-0.56 -1.91,-2.15 -1.91,-2.39 0,-0.65 0.46,-1.61 1.75,-1.61 0.9,0 2.44,0.71 2.44,2.64 0,2.6 -3.23,3.14 -4.87,3.14 -3.44,0 -5.24,-2.48 -6.03,-3.57 -0.55,2.64 -2.5,3.57 -4.14,3.57 -1.8,0 -2.79,-1.14 -3.58,-2.64 -0.96,-1.98 -1.6,-4.92 -1.6,-5.03 0,-0.5 0.5,-0.5 0.74,-0.5 0.65,0 0.7,0.07 0.95,1.16 0.89,3.48 1.84,5.92 3.39,5.92 1.3,0 1.3,-1.44 1.3,-1.98 0,-0.8 -0.16,-1.75 -0.36,-2.55 l -3.74,-14.95 c -0.09,-0.3 -0.14,-0.55 -0.14,-0.69 0,-0.55 0.39,-1.3 1.39,-1.3 1.5,0 1.85,1.44 1.94,1.85 z"
           inkscape:connector-curvature="0"
           style="fill:#000000;stroke-width:0" /><path
           id="path1063"
           d="m 656.54,413.32 v 0.03 0.02 0.02 0.02 0.02 l -0.01,0.02 v 0.02 0.02 l -0.01,0.02 v 0.01 l -0.01,0.02 -0.01,0.02 v 0.01 l -0.01,0.02 -0.01,0.01 v 0.01 l -0.01,0.02 -0.01,0.01 -0.02,0.02 -0.02,0.02 -0.02,0.02 -0.02,0.02 -0.02,0.02 -0.03,0.01 -0.03,0.01 -0.02,0.01 -0.03,0.01 -0.03,0.01 -0.03,0.01 h -0.03 l -0.03,0.01 h -0.03 l -0.03,0.01 h -0.03 -0.04 -0.06 -0.07 -0.06 c -0.66,0 -0.66,-0.11 -0.86,-0.84 -0.39,-1.45 -1.73,-6.23 -4.63,-6.23 -0.4,0 -1.09,0.04 -1.09,1.39 0,1.29 0.64,2.93 1.3,4.78 l 3.19,8.53 c 0.5,1.44 0.59,1.84 0.59,2.78 0,2.75 -1.89,3.98 -3.74,3.98 -4.68,0 -6.37,-7.42 -6.37,-7.67 0,-0.5 0.5,-0.5 0.73,-0.5 0.66,0 0.71,0.11 0.91,0.8 0.45,1.66 1.73,6.28 4.63,6.28 0.54,0 1.1,-0.25 1.1,-1.39 0,-1.2 -0.56,-2.64 -0.9,-3.59 l -1.49,-4.13 c -0.65,-1.65 -1.25,-3.3 -1.84,-4.94 -0.7,-1.89 -0.91,-2.43 -0.91,-3.43 0,-1.94 1.21,-3.99 3.79,-3.99 4.68,0 6.32,7.47 6.32,7.67 z"
           inkscape:connector-curvature="0"
           style="fill:#000000;stroke-width:0" /><path
           id="path1065"
           d="m 656.29,437.23 v 0.06 0.05 0.06 l -0.01,0.05 v 0.06 l -0.01,0.05 -0.02,0.1 -0.02,0.1 -0.03,0.09 -0.03,0.08 -0.04,0.09 -0.04,0.07 -0.05,0.08 -0.04,0.07 -0.06,0.06 -0.05,0.07 -0.06,0.05 -0.06,0.06 -0.06,0.05 -0.06,0.04 -0.07,0.05 -0.06,0.04 -0.07,0.03 -0.07,0.04 -0.07,0.02 -0.07,0.03 -0.07,0.02 -0.08,0.02 -0.07,0.02 -0.07,0.02 -0.07,0.01 -0.07,0.01 h -0.07 l -0.07,0.01 h -0.07 c -1.04,0 -2.38,-1 -2.38,-2.39 0,-1.25 1,-1.66 1.68,-1.66 1,0 2.39,0.95 2.39,2.39 z"
           inkscape:connector-curvature="0"
           style="fill:#000000;stroke-width:0" /><path
           id="path1067"
           d="m 672.69,409.14 0.05,-0.23 0.07,-0.21 0.06,-0.21 0.08,-0.2 0.08,-0.2 0.09,-0.18 0.1,-0.18 0.1,-0.17 0.11,-0.16 0.11,-0.15 0.11,-0.15 0.13,-0.14 0.12,-0.13 0.13,-0.12 0.14,-0.12 0.13,-0.11 0.15,-0.1 0.14,-0.1 0.15,-0.09 0.15,-0.08 0.15,-0.07 0.16,-0.07 0.15,-0.06 0.16,-0.06 0.16,-0.04 0.16,-0.05 0.17,-0.03 0.16,-0.03 0.16,-0.02 0.17,-0.02 h 0.16 l 0.16,-0.01 c 1.85,0 2.89,1.25 3.64,2.78 0.91,1.91 1.5,4.8 1.5,4.89 0,0.5 -0.4,0.5 -0.75,0.5 -0.59,0 -0.64,-0.04 -0.95,-1.14 -0.69,-2.79 -1.64,-5.93 -3.33,-5.93 -1.3,0 -1.3,1.34 -1.3,2.04 0,0.35 0,1.14 0.35,2.53 l 3.39,13.57 c 0.2,0.68 0.2,0.79 0.2,1.04 0,1.05 -0.84,1.3 -1.34,1.3 -1.6,0 -1.95,-1.7 -2,-1.95 -0.94,2.14 -2.53,2.93 -4.13,2.93 v -1.09 c 2.19,0 3.44,-2.59 3.44,-4.69 0,-0.09 -0.06,-0.34 -0.15,-0.64 v 0 l -2.35,-9.42 c -0.39,-1.59 -3.48,-5.62 -6.22,-5.62 -2.34,0 -2.75,2.93 -2.75,4.43 0,2.49 1.55,8.32 2.44,10.41 1.25,3.05 3.55,5.53 5.59,5.53 v 1.09 c -5.53,0 -11.42,-7.56 -11.42,-14.84 0,-4.23 2.3,-7.72 6.03,-7.72 1.8,0 3.99,1.05 5.99,3.49 z"
           inkscape:connector-curvature="0"
           style="fill:#000000;stroke-width:0" /><path
           id="path1069"
           d="m 695.83,439.53 v 0.01 l 0.01,0.02 v 0.02 l 0.01,0.02 v 0.02 l 0.01,0.02 0.01,0.02 v 0.02 l 0.01,0.02 0.01,0.03 0.01,0.04 0.01,0.05 0.01,0.05 0.02,0.05 v 0.03 l 0.01,0.02 v 0.02 l 0.01,0.02 v 0.03 l 0.01,0.02 v 0.02 0.02 l 0.01,0.01 v 0.02 0.02 0.01 0.01 0.01 c 0,0.44 -0.29,0.6 -0.7,0.6 -0.16,0 -0.64,-0.05 -0.8,-0.11 l -4.93,-0.39 c -0.6,-0.05 -1.14,-0.1 -1.14,-1.05 0,-0.55 0.5,-0.55 1.2,-0.55 2.39,0 2.48,-0.34 2.48,-0.84 0,-0.16 -0.15,-0.8 -0.15,-0.84 l -6.22,-24.93 c -0.05,-0.2 -0.3,-1.18 -0.3,-1.93 0,-2.64 1.8,-4.49 4.19,-4.49 1.89,0 2.89,1.35 3.53,2.6 0.84,1.73 1.55,4.92 1.55,5.07 0,0.5 -0.41,0.5 -0.75,0.5 -0.25,0 -0.55,0 -0.71,-0.25 l -0.34,-1.25 c -0.84,-3.48 -1.8,-5.57 -3.19,-5.57 -1.29,0 -1.29,1.34 -1.29,2.04 0,0.35 0,1.1 0.29,2.28 z"
           inkscape:connector-curvature="0"
           style="fill:#000000;stroke-width:0" /><path
           id="path1071"
           d="m 746.77,422.5 h 0.14 0.14 0.15 l 0.07,0.01 h 0.07 l 0.08,0.01 0.07,0.01 0.07,0.01 0.07,0.01 0.06,0.01 0.07,0.02 0.07,0.02 0.06,0.02 0.06,0.02 0.06,0.03 0.05,0.03 0.06,0.04 0.05,0.03 0.04,0.05 0.05,0.04 0.04,0.05 0.02,0.03 0.01,0.03 0.02,0.02 0.01,0.03 0.02,0.03 0.01,0.04 0.01,0.03 0.01,0.04 0.01,0.03 0.01,0.04 0.01,0.04 0.01,0.04 v 0.04 0.04 l 0.01,0.04 v 0.05 c 0,1 -0.96,1 -1.64,1 h -29.85 c -0.7,0 -1.64,0 -1.64,-1 0,-0.98 0.94,-0.98 1.69,-0.98 z"
           inkscape:connector-curvature="0"
           style="fill:#000000;stroke-width:0" /><path
           id="path1073"
           d="m 746.82,412.82 h 0.06 0.07 l 0.13,0.01 h 0.14 0.07 l 0.07,0.01 0.07,0.01 h 0.07 l 0.07,0.01 0.07,0.02 0.06,0.01 0.07,0.02 0.06,0.02 0.06,0.02 0.06,0.02 0.06,0.03 0.06,0.03 0.05,0.04 0.05,0.04 0.04,0.04 0.05,0.05 0.02,0.02 0.02,0.03 0.02,0.02 0.01,0.03 0.02,0.03 0.01,0.03 0.02,0.03 0.01,0.03 0.01,0.04 0.01,0.03 0.01,0.04 0.01,0.04 0.01,0.04 0.01,0.04 v 0.04 0.04 l 0.01,0.05 v 0.04 c 0,1 -0.96,1 -1.69,1 h -29.75 c -0.75,0 -1.69,0 -1.69,-1 0,-1 0.94,-1 1.64,-1 z"
           inkscape:connector-curvature="0"
           style="fill:#000000;stroke-width:0" /><path
           id="path1075"
           d="m 790.45,420.04 -0.01,0.44 -0.03,0.43 -0.04,0.43 -0.06,0.41 -0.07,0.41 -0.09,0.4 -0.11,0.38 -0.12,0.38 -0.13,0.36 -0.15,0.36 -0.17,0.34 -0.18,0.33 -0.19,0.32 -0.21,0.3 -0.22,0.3 -0.23,0.27 -0.25,0.27 -0.26,0.25 -0.27,0.24 -0.28,0.22 -0.29,0.2 -0.31,0.19 -0.31,0.18 -0.33,0.15 -0.34,0.14 -0.35,0.13 -0.35,0.1 -0.37,0.09 -0.38,0.07 -0.38,0.05 -0.4,0.02 -0.4,0.01 c -6.17,0 -12.6,-7.06 -12.6,-14.34 0,-5.12 3.15,-8.22 7.27,-8.22 v 1.1 c -1.94,0 -3.78,1.54 -3.78,5.12 0,2.5 1.29,8.03 2.89,10.72 1.84,3.05 4.23,4.53 6.17,4.53 2.45,0 3.85,-2.19 3.85,-5.12 0,-2.14 -1.1,-7.29 -2.69,-10.27 -1.46,-2.73 -3.99,-4.98 -6.44,-4.98 v 0 -1.1 c 6.19,0 12.61,7.08 12.61,14.39 z"
           inkscape:connector-curvature="0"
           style="fill:#000000;stroke-width:0" /><path
           id="path1077"
           d="m 803.39,420.54 v 0.01 l 0.01,0.03 0.01,0.02 0.01,0.04 0.02,0.05 0.02,0.05 0.02,0.06 0.03,0.07 0.03,0.08 0.03,0.08 0.03,0.08 0.04,0.1 0.09,0.2 0.1,0.23 0.11,0.24 0.13,0.26 0.14,0.27 0.15,0.28 0.16,0.29 0.17,0.3 0.19,0.31 0.2,0.3 0.22,0.3 0.22,0.31 0.24,0.29 0.25,0.29 0.26,0.28 0.27,0.27 0.29,0.25 0.3,0.24 0.31,0.21 0.33,0.2 0.16,0.09 0.17,0.08 0.17,0.08 0.18,0.06 0.18,0.07 0.18,0.05 0.19,0.05 0.18,0.04 0.19,0.03 0.2,0.02 0.2,0.02 h 0.2 c 0.23,0 1.63,0 2.63,-0.69 -1.75,-0.56 -1.9,-2.15 -1.9,-2.39 0,-0.65 0.45,-1.61 1.75,-1.61 0.89,0 2.44,0.71 2.44,2.64 0,2.6 -3.24,3.14 -4.88,3.14 -3.44,0 -5.23,-2.48 -6.03,-3.57 -0.55,2.64 -2.5,3.57 -4.14,3.57 -1.8,0 -2.78,-1.14 -3.58,-2.64 -0.95,-1.98 -1.59,-4.92 -1.59,-5.03 0,-0.5 0.5,-0.5 0.73,-0.5 0.66,0 0.7,0.07 0.95,1.16 0.9,3.48 1.85,5.92 3.4,5.92 1.29,0 1.29,-1.44 1.29,-1.98 0,-0.8 -0.15,-1.75 -0.36,-2.55 l -3.73,-14.95 c -0.1,-0.3 -0.14,-0.55 -0.14,-0.69 0,-0.55 0.39,-1.3 1.39,-1.3 1.5,0 1.84,1.44 1.94,1.85 z"
           inkscape:connector-curvature="0"
           style="fill:#000000;stroke-width:0" /><path
           id="path1079"
           d="m 828.01,413.32 v 0.03 0.02 0.02 l -0.01,0.02 v 0.02 0.02 l -0.01,0.02 v 0.02 0.02 l -0.01,0.01 v 0.02 l -0.01,0.02 -0.01,0.01 v 0.02 l -0.01,0.01 -0.01,0.01 -0.01,0.02 -0.01,0.01 -0.01,0.02 -0.02,0.02 -0.02,0.02 -0.03,0.02 -0.02,0.02 -0.02,0.01 -0.03,0.01 -0.03,0.01 -0.03,0.01 -0.02,0.01 -0.03,0.01 h -0.03 l -0.03,0.01 h -0.04 l -0.03,0.01 h -0.03 -0.03 -0.07 -0.06 -0.07 c -0.65,0 -0.65,-0.11 -0.86,-0.84 -0.39,-1.45 -1.73,-6.23 -4.62,-6.23 -0.41,0 -1.09,0.04 -1.09,1.39 0,1.29 0.64,2.93 1.29,4.78 l 3.19,8.53 c 0.5,1.44 0.59,1.84 0.59,2.78 0,2.75 -1.89,3.98 -3.73,3.98 -4.69,0 -6.38,-7.42 -6.38,-7.67 0,-0.5 0.5,-0.5 0.74,-0.5 0.65,0 0.7,0.11 0.9,0.8 0.46,1.66 1.74,6.28 4.63,6.28 0.55,0 1.11,-0.25 1.11,-1.39 0,-1.2 -0.56,-2.64 -0.91,-3.59 l -1.48,-4.13 c -0.66,-1.65 -1.25,-3.3 -1.85,-4.94 -0.7,-1.89 -0.9,-2.43 -0.9,-3.43 0,-1.94 1.2,-3.99 3.78,-3.99 4.69,0 6.33,7.47 6.33,7.67 z"
           inkscape:connector-curvature="0"
           style="fill:#000000;stroke-width:0" /><path
           id="path1081"
           d="m 827.76,437.23 v 0.06 0.05 l -0.01,0.06 v 0.05 l -0.01,0.06 -0.01,0.05 -0.02,0.1 -0.02,0.1 -0.03,0.09 -0.03,0.08 -0.04,0.09 -0.04,0.07 -0.04,0.08 -0.05,0.07 -0.05,0.06 -0.05,0.07 -0.06,0.05 -0.06,0.06 -0.06,0.05 -0.07,0.04 -0.06,0.05 -0.07,0.04 -0.07,0.03 -0.07,0.04 -0.07,0.02 -0.07,0.03 -0.07,0.02 -0.07,0.02 -0.07,0.02 -0.07,0.02 -0.08,0.01 -0.07,0.01 h -0.07 l -0.06,0.01 h -0.07 c -1.05,0 -2.39,-1 -2.39,-2.39 0,-1.25 1,-1.66 1.69,-1.66 1,0 2.39,0.95 2.39,2.39 z"
           inkscape:connector-curvature="0"
           style="fill:#000000;stroke-width:0" /><path
           id="path1083"
           d="m 843.6,408.84 -1.04,-4.19 c -0.59,-2.48 -0.91,-3.53 -2.3,-5.23 -1.98,-2.35 -3.98,-2.35 -4.73,-2.35 -0.64,0 -2.19,0 -3.53,0.57 1,0.39 1.59,1.43 1.59,2.28 0,0.65 -0.45,1.59 -1.75,1.59 -0.89,0 -2.44,-0.69 -2.44,-2.64 0,-1.98 1.85,-2.89 6.03,-2.89 5.24,0 9.02,3.3 9.97,7.08 l 5.42,21.83 c 0.21,0.75 0.21,0.84 0.21,1.04 0,1.05 -0.85,1.3 -1.35,1.3 -0.61,0 -1.75,-0.41 -1.95,-1.84 -0.69,1.43 -2.03,2.82 -4.17,2.82 v -1.09 c 2.98,0 3.44,-4.19 3.44,-4.58 l -0.16,-0.7 -2.24,-9.06 c -0.4,-1.6 -3.45,-5.49 -6.18,-5.49 -2.69,0 -2.78,3.78 -2.78,4.35 0,2.39 1.48,8.22 2.53,10.56 1.25,2.69 3.43,4.92 5.39,4.92 v 1.09 c -5.59,0 -11.31,-7.37 -11.31,-14.39 0,-4.23 2.34,-7.62 6.07,-7.62 2.53,0 4.68,2.05 5.28,2.64 z"
           inkscape:connector-curvature="0"
           style="fill:#000000;stroke-width:0" /><path
           id="path1085"
           d="m 866.16,413.32 v 0.03 0.02 0.02 0.02 0.02 l -0.01,0.02 v 0.02 0.02 l -0.01,0.02 v 0.01 l -0.01,0.02 v 0.02 l -0.01,0.01 -0.01,0.02 v 0.01 l -0.01,0.01 -0.01,0.02 -0.01,0.01 -0.02,0.02 -0.02,0.02 -0.02,0.02 -0.02,0.02 -0.02,0.02 -0.03,0.01 -0.02,0.01 -0.03,0.01 -0.03,0.01 -0.03,0.01 -0.03,0.01 h -0.03 l -0.03,0.01 h -0.03 l -0.03,0.01 h -0.03 -0.03 -0.07 -0.07 -0.06 c -0.66,0 -0.66,-0.11 -0.86,-0.84 -0.39,-1.45 -1.73,-6.23 -4.62,-6.23 -0.41,0 -1.1,0.04 -1.1,1.39 0,1.29 0.64,2.93 1.3,4.78 l 3.19,8.53 c 0.5,1.44 0.59,1.84 0.59,2.78 0,2.75 -1.89,3.98 -3.73,3.98 -4.69,0 -6.38,-7.42 -6.38,-7.67 0,-0.5 0.5,-0.5 0.73,-0.5 0.66,0 0.71,0.11 0.91,0.8 0.45,1.66 1.74,6.28 4.63,6.28 0.54,0 1.11,-0.25 1.11,-1.39 0,-1.2 -0.57,-2.64 -0.91,-3.59 l -1.49,-4.13 c -0.65,-1.65 -1.25,-3.3 -1.84,-4.94 -0.7,-1.89 -0.91,-2.43 -0.91,-3.43 0,-1.94 1.21,-3.99 3.79,-3.99 4.68,0 6.32,7.47 6.32,7.67 z"
           inkscape:connector-curvature="0"
           style="fill:#000000;stroke-width:0" /><path
           id="path1087"
           d="m 865.91,437.23 v 0.06 0.05 0.06 l -0.01,0.05 v 0.06 l -0.01,0.05 -0.02,0.1 -0.02,0.1 -0.03,0.09 -0.03,0.08 -0.04,0.09 -0.04,0.07 -0.05,0.08 -0.04,0.07 -0.05,0.06 -0.06,0.07 -0.06,0.05 -0.05,0.06 -0.07,0.05 -0.06,0.04 -0.06,0.05 -0.07,0.04 -0.07,0.03 -0.07,0.04 -0.07,0.02 -0.07,0.03 -0.07,0.02 -0.07,0.02 -0.08,0.02 -0.07,0.02 -0.07,0.01 -0.07,0.01 h -0.07 l -0.07,0.01 h -0.06 c -1.05,0 -2.39,-1 -2.39,-2.39 0,-1.25 1,-1.66 1.68,-1.66 1,0 2.39,0.95 2.39,2.39 z"
           inkscape:connector-curvature="0"
           style="fill:#000000;stroke-width:0" /><path
           id="path1089"
           d="m 876.37,414.92 0.1,0.41 0.1,0.4 0.1,0.4 0.1,0.41 0.1,0.4 0.1,0.4 0.1,0.4 0.1,0.41 c 0.65,2.55 0.65,2.6 1.5,4.05 0.7,1.19 2.93,4.92 6.73,4.92 2.19,0 2.28,-2.23 2.28,-3.28 0,-3.09 -2.18,-9.02 -2.89,-11.02 -0.64,-1.68 -0.79,-2.14 -0.79,-3.18 0,-2.19 1.4,-3.99 3.79,-3.99 4.63,0 6.33,7.42 6.33,7.67 0,0.5 -0.4,0.5 -0.75,0.5 -0.65,0 -0.65,-0.11 -0.86,-0.84 -0.39,-1.34 -1.73,-6.23 -4.62,-6.23 -1.05,0 -1.1,0.75 -1.1,1.45 0,1.23 0.5,2.53 0.89,3.73 1,2.64 3.05,8.22 3.05,11.11 0,4.08 -2.75,5.17 -5.19,5.17 -4.07,0 -6.47,-2.98 -7.12,-3.93 -0.35,2.45 -2.05,3.93 -4.19,3.93 -1.8,0 -2.78,-1.14 -3.58,-2.64 -0.95,-1.98 -1.59,-4.92 -1.59,-5.03 0,-0.5 0.5,-0.5 0.73,-0.5 0.66,0 0.71,0.07 0.96,1.16 0.89,3.48 1.84,5.92 3.39,5.92 1.29,0 1.29,-1.44 1.29,-1.98 0,-0.8 -0.15,-1.75 -0.36,-2.55 l -3.73,-14.95 c -0.09,-0.3 -0.14,-0.55 -0.14,-0.69 0,-0.55 0.39,-1.3 1.39,-1.3 0.59,0 1.45,0.35 1.8,1.3 z"
           inkscape:connector-curvature="0"
           style="fill:#000000;stroke-width:0" /><path
           id="path1091"
           d="m 910.27,409.14 0.05,-0.23 0.06,-0.21 0.07,-0.21 0.08,-0.2 0.08,-0.2 0.09,-0.18 0.1,-0.18 0.1,-0.17 0.1,-0.16 0.12,-0.15 0.11,-0.15 0.12,-0.14 0.13,-0.13 0.13,-0.12 0.13,-0.12 0.14,-0.11 0.14,-0.1 0.15,-0.1 0.15,-0.09 0.15,-0.08 0.15,-0.07 0.16,-0.07 0.15,-0.06 0.16,-0.06 0.16,-0.04 0.16,-0.05 0.17,-0.03 0.16,-0.03 0.16,-0.02 0.16,-0.02 h 0.17 l 0.16,-0.01 c 1.84,0 2.89,1.25 3.64,2.78 0.91,1.91 1.5,4.8 1.5,4.89 0,0.5 -0.41,0.5 -0.75,0.5 -0.59,0 -0.64,-0.04 -0.95,-1.14 -0.69,-2.79 -1.64,-5.93 -3.33,-5.93 -1.3,0 -1.3,1.34 -1.3,2.04 0,0.35 0,1.14 0.35,2.53 l 3.39,13.57 c 0.2,0.68 0.2,0.79 0.2,1.04 0,1.05 -0.84,1.3 -1.34,1.3 -1.6,0 -1.96,-1.7 -2,-1.95 -0.94,2.14 -2.53,2.93 -4.13,2.93 v -1.09 c 2.19,0 3.44,-2.59 3.44,-4.69 0,-0.09 -0.06,-0.34 -0.16,-0.64 v 0 l -2.34,-9.42 c -0.39,-1.59 -3.49,-5.62 -6.22,-5.62 -2.34,0 -2.75,2.93 -2.75,4.43 0,2.49 1.55,8.32 2.44,10.41 1.25,3.05 3.54,5.53 5.59,5.53 v 1.09 c -5.53,0 -11.42,-7.56 -11.42,-14.84 0,-4.23 2.3,-7.72 6.03,-7.72 1.8,0 3.99,1.05 5.99,3.49 z"
           inkscape:connector-curvature="0"
           style="fill:#000000;stroke-width:0" /><path
           id="path1093"
           d="m 933.41,439.53 v 0.01 l 0.01,0.02 v 0.02 l 0.01,0.02 v 0.02 l 0.01,0.02 v 0.02 l 0.01,0.02 0.01,0.02 v 0.03 l 0.02,0.04 0.01,0.05 0.01,0.05 0.01,0.05 0.01,0.03 0.01,0.02 v 0.02 l 0.01,0.02 v 0.03 l 0.01,0.02 v 0.02 0.02 l 0.01,0.01 v 0.02 0.02 0.01 0.01 0.01 c 0,0.44 -0.29,0.6 -0.7,0.6 -0.16,0 -0.64,-0.05 -0.8,-0.11 l -4.94,-0.39 c -0.59,-0.05 -1.14,-0.1 -1.14,-1.05 0,-0.55 0.5,-0.55 1.21,-0.55 2.39,0 2.48,-0.34 2.48,-0.84 0,-0.16 -0.15,-0.8 -0.15,-0.84 l -6.22,-24.93 c -0.05,-0.2 -0.3,-1.18 -0.3,-1.93 0,-2.64 1.8,-4.49 4.19,-4.49 1.89,0 2.89,1.35 3.53,2.6 0.84,1.73 1.55,4.92 1.55,5.07 0,0.5 -0.41,0.5 -0.75,0.5 -0.25,0 -0.55,0 -0.71,-0.25 l -0.34,-1.25 c -0.85,-3.48 -1.8,-5.57 -3.19,-5.57 -1.3,0 -1.3,1.34 -1.3,2.04 0,0.35 0,1.1 0.3,2.28 z"
           inkscape:connector-curvature="0"
           style="fill:#000000;stroke-width:0" /><path
           id="path1095"
           d="m 980.3,417.65 h 0.16 0.16 l 0.16,0.01 h 0.07 l 0.08,0.01 h 0.08 l 0.07,0.01 0.07,0.01 0.08,0.01 0.07,0.02 0.06,0.02 0.07,0.02 0.06,0.02 0.06,0.02 0.06,0.03 0.06,0.03 0.05,0.04 0.05,0.03 0.05,0.05 0.04,0.04 0.04,0.05 0.01,0.03 0.02,0.03 0.02,0.03 0.01,0.03 0.02,0.03 0.01,0.03 0.01,0.04 0.01,0.03 0.01,0.04 0.01,0.04 v 0.04 l 0.01,0.04 0.01,0.04 v 0.04 0.05 0.04 c 0,1 -0.9,1 -1.75,1 h -26.95 c -0.85,0 -1.74,0 -1.74,-1 0,-1 0.89,-1 1.74,-1 z"
           inkscape:connector-curvature="0"
           style="fill:#000000;stroke-width:0" /><path
           id="path1097"
           d="m 1012.1,417.46 0.2,0.01 h 0.1 0.2 v 0 l 0.1,0.01 h 0.1 l 0.1,0.01 v 0.01 l 0.1,0.01 0.1,0.01 v 0.02 l 0.1,0.01 0.1,0.02 v 0.02 l 0.1,0.03 v 0.02 l 0.1,0.03 v 0.03 l 0.1,0.04 v 0.04 l 0.1,0.04 v 0.05 0.02 0.03 0.02 l 0.1,0.03 v 0.03 0.03 0.03 0.03 0.04 0.03 0.04 0.03 0.04 0.04 c 0,0.69 -0.6,0.69 -1.4,0.69 h -8.1 c 1.2,4.23 4,7.12 8.5,7.12 h 1.6 c 0.8,0 1.6,0 1.6,0.86 0,0.69 -0.7,0.69 -1.5,0.69 h -1.7 c -6.5,0 -13.19,-4.99 -13.19,-12.6 0,-5.48 3.69,-9.42 8.99,-9.42 3.3,0 6.5,1.99 6.5,2.55 0,0.14 -0.1,0.69 -0.5,0.69 -0.1,0 -0.2,0 -0.6,-0.3 -1.6,-1 -3.4,-1.84 -5.3,-1.84 -2.9,0 -5.4,2.09 -5.4,6.48 0,1.73 0.5,3.63 0.6,4.23 z"
           inkscape:connector-curvature="0"
           style="fill:#000000;stroke-width:0" /><path
           id="path1099"
           d="m 1042.3,427.48 v 0.07 0.06 0.08 0.07 0.07 0.08 0.08 0.08 0.07 0.08 0.08 0.08 l -0.1,0.08 v 0.07 0.08 0.07 l -0.1,0.07 v 0.07 0.07 l -0.1,0.06 v 0.06 l -0.1,0.06 v 0.03 0.02 l -0.1,0.03 v 0.02 0.02 l -0.1,0.03 v 0.02 l -0.1,0.02 v 0.01 0.02 l -0.1,0.01 v 0.02 l -0.1,0.01 v 0.01 l -0.1,0.01 v 0.01 h -0.1 v 0.01 h -0.1 -0.1 c -0.8,0 -1.4,-0.66 -1.3,-1.3 v -0.65 l 0.7,-7.72 -6.3,4.64 c -0.5,0.25 -0.6,0.34 -0.9,0.34 -0.7,0 -1.4,-0.7 -1.4,-1.39 0,-0.79 0.5,-1 1,-1.25 l 7.1,-3.39 -6.9,-3.33 c -0.8,-0.4 -1.2,-0.61 -1.2,-1.36 0,-0.73 0.7,-1.39 1.4,-1.39 0.3,0 0.4,0 1.7,0.96 l 5.5,4.03 -0.7,-8.38 c 0,-1.04 0.9,-1.29 1.3,-1.29 0.6,0 1.3,0.36 1.3,1.29 l -0.7,8.38 6.4,-4.64 c 0.4,-0.24 0.5,-0.35 0.9,-0.35 0.7,0 1.3,0.71 1.3,1.39 0,0.75 -0.4,1 -1,1.3 -3,1.5 -3.1,1.5 -7.1,3.35 l 6.9,3.34 c 0.8,0.39 1.2,0.59 1.2,1.34 0,0.75 -0.6,1.39 -1.3,1.39 -0.4,0 -0.5,0 -1.7,-0.95 l -5.6,-4.03 z"
           inkscape:connector-curvature="0"
           style="fill:#000000;stroke-width:0" /><path
           id="path1101"
           d="m 1076.9,416.01 0.4,-0.09 0.4,-0.1 0.4,-0.1 0.2,-0.06 0.2,-0.06 0.2,-0.06 0.2,-0.06 0.2,-0.07 0.2,-0.08 0.1,-0.07 0.2,-0.09 0.2,-0.09 0.1,-0.09 0.2,-0.1 0.1,-0.11 0.2,-0.12 0.1,-0.12 0.1,-0.13 0.1,-0.14 0.1,-0.15 0.1,-0.16 0.1,-0.16 0.1,-0.18 0.1,-0.19 v -0.2 l 0.1,-0.21 v -0.22 -0.11 -0.12 -0.12 -0.13 c 0,-1.59 -1.3,-5.57 -6.5,-5.57 -1,0 -3.9,0.25 -4.7,2.79 2.5,0.25 2.5,2.33 2.5,2.44 0,0.94 -0.6,1.59 -1.7,1.59 -1.1,0 -2.5,-0.84 -2.5,-3.09 0,-3.03 2.8,-4.83 6.4,-4.83 7.5,0 9.4,6.08 9.4,8.38 0,4.33 -3.9,5.22 -6,5.67 -1.4,0.3 -3.1,0.7 -3.1,2.84 0,1.19 1,4.58 5,4.58 1.3,0 3.2,-0.5 3.7,-2.44 -1.6,-0.2 -2,-1.54 -2,-2.04 0,-0.55 0.3,-1.39 1.5,-1.39 0.9,0 2.2,0.59 2.2,2.73 0,2.3 -2.1,4.23 -5.4,4.23 -5.8,0 -7.9,-4.78 -7.9,-7.37 0,-3.83 3.3,-4.53 4.7,-4.83 z"
           inkscape:connector-curvature="0"
           style="fill:#000000;stroke-width:0" /><path
           id="path1103"
           d="m 1101.5,413.32 v 0.03 0.02 0.02 0.02 0.02 0.02 l -0.1,0.02 v 0.02 0.02 0.01 0.02 0.02 0.01 0.02 0.01 0.01 0.02 0.01 0.02 l -0.1,0.02 v 0.02 0.02 0.02 l -0.1,0.01 v 0.01 0.01 0.01 l -0.1,0.01 v 0.01 0 l -0.1,0.01 v 0 0.01 0 h -0.1 v 0 h -0.1 -0.1 c -0.6,0 -0.6,-0.11 -0.8,-0.84 -0.4,-1.45 -1.8,-6.23 -4.7,-6.23 -0.4,0 -1,0.04 -1,1.39 0,1.29 0.6,2.93 1.2,4.78 l 3.2,8.53 c 0.5,1.44 0.6,1.84 0.6,2.78 0,2.75 -1.9,3.98 -3.7,3.98 -4.7,0 -6.4,-7.42 -6.4,-7.67 0,-0.5 0.5,-0.5 0.8,-0.5 0.6,0 0.7,0.11 0.9,0.8 0.4,1.66 1.7,6.28 4.6,6.28 0.5,0 1.1,-0.25 1.1,-1.39 0,-1.2 -0.6,-2.64 -0.9,-3.59 l -1.5,-4.13 c -0.7,-1.65 -1.2,-3.3 -1.8,-4.94 -0.7,-1.89 -0.9,-2.43 -0.9,-3.43 0,-1.94 1.2,-3.99 3.7,-3.99 4.7,0 6.4,7.47 6.4,7.67 z"
           inkscape:connector-curvature="0"
           style="fill:#000000;stroke-width:0" /><path
           id="path1105"
           d="m 1101.2,437.23 v 0.06 0.05 0.06 0.05 0.06 0.05 0.1 l -0.1,0.1 v 0.09 0.08 l -0.1,0.09 v 0.07 0.08 l -0.1,0.07 v 0.06 l -0.1,0.07 v 0.05 l -0.1,0.06 -0.1,0.05 v 0.04 l -0.1,0.05 -0.1,0.04 v 0.03 l -0.1,0.04 -0.1,0.02 v 0.03 l -0.1,0.02 -0.1,0.02 -0.1,0.02 v 0.02 l -0.1,0.01 -0.1,0.01 v 0 l -0.1,0.01 h -0.1 c -1,0 -2.4,-1 -2.4,-2.39 0,-1.25 1,-1.66 1.7,-1.66 1,0 2.4,0.95 2.4,2.39 z"
           inkscape:connector-curvature="0"
           style="fill:#000000;stroke-width:0" /><path
           id="path1107"
           d="m 1117.1,408.84 -1.1,-4.19 c -0.6,-2.48 -0.9,-3.53 -2.3,-5.23 -2,-2.35 -4,-2.35 -4.7,-2.35 -0.7,0 -2.2,0 -3.6,0.57 1,0.39 1.7,1.43 1.7,2.28 0,0.65 -0.5,1.59 -1.8,1.59 -0.9,0 -2.4,-0.69 -2.4,-2.64 0,-1.98 1.8,-2.89 6,-2.89 5.2,0 9,3.3 10,7.08 l 5.4,21.83 c 0.2,0.75 0.2,0.84 0.2,1.04 0,1.05 -0.9,1.3 -1.4,1.3 -0.6,0 -1.7,-0.41 -1.9,-1.84 -0.7,1.43 -2,2.82 -4.2,2.82 v -1.09 c 3,0 3.4,-4.19 3.4,-4.58 l -0.1,-0.7 -2.2,-9.06 c -0.4,-1.6 -3.5,-5.49 -6.2,-5.49 -2.7,0 -2.8,3.78 -2.8,4.35 0,2.39 1.5,8.22 2.5,10.56 1.3,2.69 3.5,4.92 5.4,4.92 v 1.09 c -5.6,0 -11.3,-7.37 -11.3,-14.39 0,-4.23 2.4,-7.62 6.1,-7.62 2.5,0 4.6,2.05 5.3,2.64 z"
           inkscape:connector-curvature="0"
           style="fill:#000000;stroke-width:0" /><path
           id="path1109"
           d="m 1134.6,414.92 0.1,0.41 0.1,0.4 0.1,0.4 0.1,0.41 0.1,0.4 0.1,0.4 0.1,0.4 0.1,0.41 c 0.6,2.55 0.6,2.6 1.5,4.05 0.7,1.19 2.9,4.92 6.7,4.92 2.2,0 2.3,-2.23 2.3,-3.28 0,-3.09 -2.2,-9.02 -2.9,-11.02 -0.6,-1.68 -0.8,-2.14 -0.8,-3.18 0,-2.19 1.4,-3.99 3.8,-3.99 4.6,0 6.3,7.42 6.3,7.67 0,0.5 -0.4,0.5 -0.7,0.5 -0.7,0 -0.7,-0.11 -0.9,-0.84 -0.4,-1.34 -1.7,-6.23 -4.6,-6.23 -1,0 -1.1,0.75 -1.1,1.45 0,1.23 0.5,2.53 0.9,3.73 1,2.64 3,8.22 3,11.11 0,4.08 -2.7,5.17 -5.1,5.17 -4.1,0 -6.5,-2.98 -7.2,-3.93 -0.3,2.45 -2,3.93 -4.2,3.93 -1.7,0 -2.7,-1.14 -3.5,-2.64 -1,-1.98 -1.6,-4.92 -1.6,-5.03 0,-0.5 0.5,-0.5 0.7,-0.5 0.7,0 0.7,0.07 1,1.16 0.9,3.48 1.8,5.92 3.4,5.92 1.3,0 1.3,-1.44 1.3,-1.98 0,-0.8 -0.2,-1.75 -0.4,-2.55 l -3.7,-14.95 c -0.1,-0.3 -0.2,-0.55 -0.2,-0.69 0,-0.55 0.4,-1.3 1.4,-1.3 0.6,0 1.5,0.35 1.8,1.3 z"
           inkscape:connector-curvature="0"
           style="fill:#000000;stroke-width:0" /><path
           id="path1111"
           d="m 1171.4,394.25 v 0.02 0.03 0.01 0.02 0.01 0.02 0.01 0.02 0.02 0.02 0.02 l -0.1,0.03 v 0.02 0.03 0.03 0.03 l -0.1,0.03 v 0.04 0.02 0.02 0.02 l -0.1,0.02 v 0.02 0.03 0.02 0.02 l -0.1,0.03 v 0.02 0.03 0.03 l -0.1,0.03 v 0.03 0.03 0.03 l -0.1,0.03 v 0.03 0.04 l -0.1,0.03 v 0.04 0.03 l -0.1,0.04 v 0.04 c -6.2,6.28 -7.8,15.69 -7.8,23.31 0,8.67 1.9,17.35 8,23.56 0.6,0.61 0.6,0.71 0.6,0.86 0,0.35 -0.2,0.49 -0.5,0.49 -0.5,0 -5,-3.38 -7.9,-9.7 -2.5,-5.49 -3.1,-11.02 -3.1,-15.21 0,-3.89 0.5,-9.9 3.3,-15.54 2.9,-6.13 7.2,-9.36 7.7,-9.36 0.3,0 0.5,0.14 0.5,0.5 z"
           inkscape:connector-curvature="0"
           style="fill:#000000;stroke-width:0" /><path
           id="path1113"
           d="m 1205.7,433 v 0.02 0.03 0.03 0.02 l 0.1,0.03 v 0.02 0.03 0.02 0.02 0.03 0.04 0.04 l 0.1,0.04 v 0.03 0.04 0.03 0.03 0.03 0.02 0.03 l 0.1,0.02 v 0.02 0.03 0.02 0.02 0.02 0.01 0.02 0.02 0.04 0.03 0.04 0.03 c 0,1 -0.9,1 -1.8,1 h -24 l 0.8,-2 h 22.5 l -11.3,-24.36 -11.2,24.36 -0.8,2 c -0.8,0 -1.8,0 -1.8,-1 0,-0.2 0.1,-0.4 0.3,-0.79 l 12.4,-26.91 c 0.4,-0.89 0.8,-1 1.1,-1 0.3,0 0.6,0.11 0.8,0.3 z"
           inkscape:connector-curvature="0"
           style="fill:#000000;stroke-width:0" /><path
           id="path1115"
           d="m 1230.5,408.14 v 0.31 0.31 l -0.1,0.3 v 0.3 l -0.1,0.3 -0.1,0.28 v 0.28 l -0.1,0.28 -0.1,0.26 -0.2,0.26 -0.1,0.25 -0.1,0.24 -0.2,0.24 -0.2,0.22 -0.1,0.22 -0.2,0.2 -0.2,0.2 -0.2,0.19 -0.3,0.17 -0.2,0.17 -0.2,0.15 -0.3,0.14 -0.2,0.13 -0.3,0.12 -0.3,0.11 -0.3,0.09 -0.3,0.08 -0.3,0.06 -0.3,0.05 -0.3,0.04 -0.3,0.02 -0.4,0.01 v -0.97 c 1.2,0 3.2,-0.73 3.2,-3.83 0,-1.18 -0.5,-4.53 -2,-6.9 -1,-1.67 -3,-3.03 -4.9,-3.03 v 0 c -0.9,0 -3.2,0.48 -3.2,3.82 0,1.55 0.7,5.21 2.4,7.36 1.2,1.64 3,2.58 4.5,2.58 v 0.97 c -4.9,0 -9.7,-4.84 -9.7,-9.72 0,-3.54 2.5,-5.98 6,-5.98 5,0 9.7,4.87 9.7,9.72 z"
           inkscape:connector-curvature="0"
           style="fill:#000000;stroke-width:0" /><path
           id="path1117"
           d="m 1240.6,405.25 0.1,0.28 0.1,0.29 0.1,0.56 0.1,0.28 v 0.28 l 0.1,0.29 0.1,0.28 c 0.2,0.83 0.6,2.33 2.1,4.08 0.7,0.8 1.7,1.56 3.3,1.56 0.3,0 1.5,-0.03 2.3,-0.59 -0.7,-0.35 -1,-0.97 -1,-1.56 0,-0.99 0.7,-1.19 1.2,-1.19 0.7,0 1.7,0.48 1.7,1.92 0,1.77 -2.1,2.39 -4.2,2.39 -0.9,0 -2.8,-0.06 -4.8,-2.36 -0.6,1.91 -2.4,2.36 -3.3,2.36 -1.5,0 -2.3,-0.97 -2.8,-1.84 -0.8,-1.14 -1.3,-3.27 -1.3,-3.49 0,-0.45 0.4,-0.45 0.7,-0.45 0.6,0 0.7,0.03 0.9,1.02 0.6,2.4 1.3,3.79 2.3,3.79 1.1,0 1.1,-1.25 1.1,-1.67 0,-0.66 -0.4,-2.44 -0.7,-3.66 l -1,-3.76 c -0.1,-0.52 -0.4,-1.85 -0.6,-2.38 -0.1,-0.76 -0.5,-1.98 -0.5,-2.22 0,-0.76 0.6,-1.04 1.1,-1.04 0.8,0 1.2,0.54 1.4,0.83 0.1,0.25 0.4,1.5 0.6,2.23 z"
           inkscape:connector-curvature="0"
           style="fill:#000000;stroke-width:0" /><path
           id="path1119"
           d="m 1261.2,420.46 -0.1,0.07 v 0.07 0.06 0.07 0.06 0.06 0.06 0.06 l -0.1,0.05 v 0.05 0.05 0.05 l -0.1,0.05 v 0.05 l -0.1,0.04 v 0.04 0.04 l -0.1,0.04 v 0.03 l -0.1,0.03 v 0.03 l -0.1,0.03 v 0.02 l -0.1,0.03 v 0.02 l -0.1,0.01 -0.1,0.02 v 0.01 l -0.1,0.01 v 0.01 h -0.1 -0.1 c -0.9,0 -1.7,-0.9 -1.7,-1.67 0,-0.62 0.4,-1.22 1.2,-1.22 0.9,0 1.8,0.85 1.8,1.67 z"
           inkscape:connector-curvature="0"
           style="fill:#000000;stroke-width:0" /><path
           id="path1121"
           d="m 1256.1,407.37 -0.1,-0.06 v -0.08 -0.07 -0.08 l -0.1,-0.09 v -0.08 -0.1 l -0.1,-0.09 v -0.1 l -0.1,-0.1 v -0.11 -0.1 l -0.1,-0.22 -0.1,-0.23 -0.1,-0.23 -0.1,-0.23 -0.1,-0.22 -0.1,-0.23 v -0.22 l -0.1,-0.11 v -0.1 l -0.1,-0.11 v -0.1 -0.1 l -0.1,-0.09 c -0.3,-0.91 -0.8,-2.16 -0.8,-2.78 0,-1.61 1.3,-2.92 3.1,-2.92 3.5,0 5.1,4.76 5.1,5.33 0,0.45 -0.5,0.45 -0.8,0.45 -0.6,0 -0.6,-0.11 -0.8,-0.74 -0.5,-1.67 -1.6,-4.07 -3.4,-4.07 -0.8,0 -0.8,0.84 -0.8,1.18 0,0.83 0.6,2.33 1,3.46 0.4,1.08 2.2,5.5 2.3,6.03 0.2,0.58 0.2,0.69 0.2,1.14 0,1.56 -1.2,2.92 -3.1,2.92 -3.4,0 -5,-4.7 -5,-5.33 0,-0.45 0.4,-0.45 0.7,-0.45 0.4,0 0.6,0 0.7,0.45 1.2,4.05 2.9,4.36 3.5,4.36 0.4,0 0.9,-0.11 0.9,-1.19 0,-0.76 -0.3,-1.45 -0.6,-2.18 z"
           inkscape:connector-curvature="0"
           style="fill:#000000;stroke-width:0" /><path
           id="path1123"
           d="m 1280.6,411.68 v 0.03 0.02 0.03 0.02 0.02 0.02 0.02 0.02 0.02 0.02 l 0.1,0.02 v 0.02 0.01 0.02 0.03 0.03 0.03 0.03 0.02 0.03 0.02 0.02 0.02 0.02 0.01 0.02 0.01 0.02 0.01 0.02 0.01 0.02 0.03 0.02 0.03 c 0,0.76 -0.5,1.04 -1.1,1.04 -0.7,0 -1.3,-0.51 -1.5,-1.21 -0.8,1.29 -2,1.87 -3.4,1.87 v -0.97 c 2.4,0 2.8,-3 2.8,-3.31 l -0.1,-0.48 -1.4,-5.69 c -0.3,-1.08 -2.6,-3.94 -4.8,-3.94 -1.6,0 -2.4,1.44 -2.4,3.25 0,1.45 0.8,5.36 1.9,7.2 1.2,2.1 2.8,2.97 4,2.97 v 0.97 c -4.3,0 -8.6,-4.87 -8.6,-9.75 0,-3.2 2,-5.61 5,-5.61 1.7,0 3.2,0.94 4.1,1.75 -0.1,-0.45 -1.1,-4.22 -1.1,-4.3 -0.3,-0.73 -1.5,-3.57 -5.1,-3.57 -0.5,0 -1.7,0 -2.6,0.31 0.9,0.48 0.9,1.39 0.9,1.42 0,0.7 -0.5,1.19 -1.3,1.19 -0.8,0 -1.7,-0.74 -1.7,-1.89 0,-1.85 2.2,-2.02 4.6,-2.02 5,0 7.4,2.69 7.9,4.88 z"
           inkscape:connector-curvature="0"
           style="fill:#000000;stroke-width:0" /><path
           id="path1125"
           d="m 1292.9,420.46 v 0.07 0.07 0.06 0.07 0.06 0.06 0.06 0.06 l -0.1,0.05 v 0.05 0.05 l -0.1,0.05 v 0.05 0.05 l -0.1,0.04 v 0.04 0.04 l -0.1,0.04 v 0.03 l -0.1,0.03 v 0.03 l -0.1,0.03 v 0.02 l -0.1,0.03 v 0.02 l -0.1,0.01 -0.1,0.02 v 0.01 l -0.1,0.01 v 0.01 h -0.1 -0.1 c -0.9,0 -1.7,-0.9 -1.7,-1.67 0,-0.62 0.4,-1.22 1.2,-1.22 0.9,0 1.7,0.85 1.7,1.67 z"
           inkscape:connector-curvature="0"
           style="fill:#000000;stroke-width:0" /><path
           id="path1127"
           d="m 1287.9,407.37 -0.1,-0.06 v -0.08 -0.07 -0.08 l -0.1,-0.09 v -0.08 -0.1 l -0.1,-0.09 v -0.1 l -0.1,-0.1 v -0.11 -0.1 l -0.1,-0.22 -0.1,-0.23 -0.1,-0.23 -0.1,-0.23 -0.1,-0.22 -0.1,-0.23 v -0.22 l -0.1,-0.11 v -0.1 l -0.1,-0.11 v -0.1 -0.1 l -0.1,-0.09 c -0.3,-0.91 -0.8,-2.16 -0.8,-2.78 0,-1.61 1.3,-2.92 3.1,-2.92 3.5,0 5.1,4.76 5.1,5.33 0,0.45 -0.5,0.45 -0.8,0.45 -0.6,0 -0.6,-0.11 -0.8,-0.74 -0.5,-1.67 -1.6,-4.07 -3.4,-4.07 -0.8,0 -0.8,0.84 -0.8,1.18 0,0.83 0.6,2.33 1,3.46 0.4,1.08 2.2,5.5 2.3,6.03 0.2,0.58 0.2,0.69 0.2,1.14 0,1.56 -1.2,2.92 -3.1,2.92 -3.4,0 -5,-4.7 -5,-5.33 0,-0.45 0.4,-0.45 0.7,-0.45 0.4,0 0.6,0 0.7,0.45 1.2,4.05 2.9,4.36 3.5,4.36 0.4,0 0.9,-0.11 0.9,-1.19 0,-0.76 -0.3,-1.45 -0.6,-2.18 z"
           inkscape:connector-curvature="0"
           style="fill:#000000;stroke-width:0" /><path
           id="path1129"
           d="m 1303.9,411.17 v 0.19 0.19 l -0.1,0.18 v 0.17 l -0.1,0.17 v 0.16 l -0.1,0.15 -0.1,0.15 -0.1,0.13 -0.1,0.13 -0.1,0.13 -0.1,0.12 -0.1,0.11 -0.1,0.1 -0.1,0.1 -0.2,0.09 -0.1,0.09 -0.1,0.08 -0.1,0.07 -0.2,0.07 -0.1,0.06 -0.1,0.05 -0.2,0.05 -0.1,0.05 -0.2,0.04 -0.1,0.03 -0.1,0.03 -0.2,0.02 -0.1,0.02 -0.1,0.01 -0.2,0.01 h -0.1 c -1.5,0 -2.3,-0.97 -2.8,-1.84 -0.7,-1.14 -1.3,-3.27 -1.3,-3.49 0,-0.45 0.5,-0.45 0.8,-0.45 0.6,0 0.6,0.03 0.9,1.02 0.6,2.4 1.2,3.79 2.3,3.79 1.1,0 1.1,-1.25 1.1,-1.67 0,-0.66 -0.5,-2.44 -0.8,-3.66 l -0.9,-3.76 c -0.1,-0.52 -0.5,-1.85 -0.6,-2.38 -0.2,-0.76 -0.5,-1.98 -0.5,-2.22 0,-0.76 0.5,-1.04 1.1,-1.04 1.1,0 1.4,1.04 1.5,1.56 0.2,0.59 0.6,2.33 0.8,3.11 0.1,0.52 0.5,1.84 0.6,2.36 0.1,0.34 0.5,2.09 0.6,2.34 0,0.21 1.1,2.5 2.5,3.83 1.1,0.94 2.3,1.53 3.7,1.53 1.6,0 2,-1.22 2,-2.37 0,-2.05 -1.7,-6.27 -2.3,-7.88 -0.3,-0.86 -0.3,-1.11 -0.3,-1.56 0,-1.88 1.5,-2.92 3.1,-2.92 3.5,0 5,4.76 5,5.33 0,0.45 -0.4,0.45 -0.7,0.45 -0.6,0 -0.6,-0.11 -0.8,-0.74 -0.6,-2.15 -1.9,-4.07 -3.4,-4.07 -0.5,0 -0.9,0.25 -0.9,1.18 0,0.77 0.3,1.54 0.6,2.33 0.6,1.64 2.1,5.44 2.1,7.36 0,2.72 -1.9,3.86 -4.3,3.86 -2.7,0 -4.6,-1.62 -5.7,-2.95 z"
           inkscape:connector-curvature="0"
           style="fill:#000000;stroke-width:0" /><path
           id="path1131"
           d="m 1335.4,411.68 0.1,0.03 v 0.02 0.03 0.02 0.02 0.02 0.02 0.02 0.02 0.02 0.02 0.02 0.01 0.02 0.03 0.03 0.03 l 0.1,0.03 v 0.02 0.03 0.02 0.02 0.02 0.02 0.01 0.02 0.01 0.02 0.01 0.02 0.01 0.02 0.03 0.02 0.03 c 0,0.76 -0.6,1.04 -1.1,1.04 -1.1,0 -1.5,-1.18 -1.5,-1.28 -0.9,1.43 -2.2,1.94 -3.4,1.94 v -0.97 c 2.3,0 2.8,-3.03 2.8,-3.37 0,-0.11 -0.1,-0.25 -0.1,-0.5 l -1.5,-5.78 c -0.3,-1.08 -1,-1.91 -1.8,-2.68 -1.4,-1.26 -2.6,-1.43 -3.1,-1.43 -1.6,0 -2.4,1.5 -2.4,3.31 0,1.47 0.9,5.3 1.9,7.17 1.1,2.06 2.8,3.28 4.2,3.28 v 0.97 c -4.3,0 -8.7,-4.91 -8.7,-10 0,-3.72 2.3,-5.7 4.9,-5.7 2.3,0 4.1,1.64 4.8,2.36 0.5,-1.67 2.1,-2.36 3.3,-2.36 1.1,0 2,0.51 2.8,1.76 0.9,1.36 1.3,3.46 1.3,3.57 0,0.45 -0.4,0.45 -0.7,0.45 -0.6,0 -0.7,-0.08 -0.9,-0.94 -0.5,-1.81 -1.1,-3.87 -2.3,-3.87 -1,0 -1.2,1.04 -1.2,1.64 0,0.59 0,0.65 0.3,1.47 z"
           inkscape:connector-curvature="0"
           style="fill:#000000;stroke-width:0" /><path
           id="path1133"
           d="m 1348.9,421.93 v 0.02 0.01 0.02 0.01 0.02 0.01 0.02 0.02 0.03 0.04 0.03 0.04 0.03 0.04 0.03 0.02 0.02 0.01 0.02 0.01 0.02 0.01 0.01 0.02 0.01 c 0,0.53 -0.5,0.5 -0.9,0.45 l -3.8,-0.31 c -0.4,-0.03 -0.9,-0.06 -0.9,-0.8 0,-0.48 0.5,-0.48 0.9,-0.48 1.7,0 1.7,-0.25 1.7,-0.56 0,-0.24 0,-0.52 -0.1,-0.77 l -4.3,-17.11 c -0.2,-0.69 -0.2,-0.94 -0.2,-1.19 0,-2.29 1.9,-3.26 3.5,-3.26 0.8,0 1.9,0.28 2.8,1.87 0.8,1.36 1.2,3.32 1.2,3.46 0,0.45 -0.4,0.45 -0.7,0.45 -0.7,0 -0.7,-0.11 -0.8,-0.7 -0.5,-1.85 -1.1,-4.11 -2.4,-4.11 -1,0 -1.1,1.04 -1.1,1.64 0,0.59 0.1,1.33 0.2,1.42 z"
           inkscape:connector-curvature="0"
           style="fill:#000000;stroke-width:0" /><path
           id="path1135"
           d="m 1370.6,394.25 v 0.02 0.03 0.01 0.02 0.01 l -0.1,0.02 v 0.01 0.02 0.02 0.02 0.02 0.03 0.02 0.03 l -0.1,0.03 v 0.03 0.03 0.04 l -0.1,0.02 v 0.02 0.02 0.02 0.02 l -0.1,0.03 v 0.02 0.02 0.03 0.02 l -0.1,0.03 v 0.03 0.03 0.03 l -0.1,0.03 v 0.03 0.03 l -0.1,0.03 v 0.04 0.03 l -0.1,0.04 v 0.03 0.04 l -0.1,0.04 c -6.2,6.28 -7.8,15.69 -7.8,23.31 0,8.67 1.9,17.35 8,23.56 0.7,0.61 0.7,0.71 0.7,0.86 0,0.35 -0.2,0.49 -0.5,0.49 -0.5,0 -5,-3.38 -7.9,-9.7 -2.6,-5.49 -3.2,-11.02 -3.2,-15.21 0,-3.89 0.6,-9.9 3.3,-15.54 3,-6.13 7.3,-9.36 7.8,-9.36 0.3,0 0.5,0.14 0.5,0.5 z"
           inkscape:connector-curvature="0"
           style="fill:#000000;stroke-width:0" /><path
           id="path1137"
           d="m 1400.3,436.59 0.1,0.15 v 0.14 l 0.1,0.14 v 0.13 0.12 l 0.1,0.12 v 0.11 0.11 l 0.1,0.1 v 0.09 l 0.1,0.09 v 0.08 l 0.1,0.08 v 0.07 l 0.1,0.07 0.1,0.06 0.1,0.06 0.1,0.05 0.1,0.05 0.1,0.04 0.1,0.04 0.1,0.04 0.1,0.03 0.1,0.01 0.1,0.02 0.1,0.01 v 0.01 l 0.1,0.01 0.1,0.01 0.1,0.01 0.1,0.01 0.1,0.01 h 0.1 l 0.1,0.01 h 0.1 l 0.1,0.01 h 0.1 0.1 0.1 0.2 0.1 c 0.8,0 1.3,0 1.3,0.96 0,0.43 -0.3,0.59 -0.7,0.59 -1.2,0 -4.2,-0.16 -5.5,-0.16 -1.6,0 -5.7,0.16 -7.3,0.16 -0.5,0 -1.1,0 -1.1,-1 0,-0.55 0.4,-0.55 1.7,-0.55 1.2,0 1.7,0 2.9,-0.09 1.2,-0.16 1.6,-0.31 1.6,-1 0,-0.3 -0.1,-0.66 -0.2,-1.05 l -5.8,-22.87 c -1.2,-4.83 -4.5,-7.47 -7.1,-7.47 -1.3,0 -4,0.5 -4.8,3.09 0.2,-0.04 0.5,-0.04 0.6,-0.04 2,0 3.3,1.68 3.3,3.18 0,1.6 -1.4,2.08 -2.2,2.08 -0.9,0 -3.4,-0.59 -3.4,-3.98 0,-3.08 2.7,-5.42 6.6,-5.42 4.6,0 9.8,3.28 11,8.21 z"
           inkscape:connector-curvature="0"
           style="fill:#000000;stroke-width:0" /><path
           id="path1139"
           d="m 1422.3,394.25 v 0.02 0.03 0.01 0.02 0.01 0.02 0.01 0.02 l -0.1,0.02 v 0.02 0.02 0.03 0.02 0.03 0.03 l -0.1,0.03 v 0.03 0.04 0.02 l -0.1,0.02 v 0.02 0.02 0.02 0.03 l -0.1,0.02 v 0.02 0.03 0.02 l -0.1,0.03 v 0.03 0.03 0.03 l -0.1,0.03 v 0.03 0.03 l -0.1,0.03 v 0.04 0.03 l -0.1,0.04 v 0.03 0.04 l -0.1,0.04 c -6.2,6.28 -7.8,15.69 -7.8,23.31 0,8.67 1.9,17.35 8,23.56 0.7,0.61 0.7,0.71 0.7,0.86 0,0.35 -0.2,0.49 -0.5,0.49 -0.5,0 -5,-3.38 -7.9,-9.7 -2.6,-5.49 -3.2,-11.02 -3.2,-15.21 0,-3.89 0.6,-9.9 3.3,-15.54 3,-6.13 7.3,-9.36 7.8,-9.36 0.3,0 0.5,0.14 0.5,0.5 z"
           inkscape:connector-curvature="0"
           style="fill:#000000;stroke-width:0" /><path
           id="path1141"
           d="m 1450.5,420.04 v 0.44 l -0.1,0.43 v 0.43 l -0.1,0.41 v 0.41 l -0.1,0.4 -0.1,0.38 -0.2,0.38 -0.1,0.36 -0.1,0.36 -0.2,0.34 -0.2,0.33 -0.2,0.32 -0.2,0.3 -0.2,0.3 -0.2,0.27 -0.3,0.27 -0.2,0.25 -0.3,0.24 -0.3,0.22 -0.3,0.2 -0.3,0.19 -0.3,0.18 -0.3,0.15 -0.4,0.14 -0.3,0.13 -0.4,0.1 -0.4,0.09 -0.3,0.07 -0.4,0.05 -0.4,0.02 -0.4,0.01 c -6.2,0 -12.6,-7.06 -12.6,-14.34 0,-5.12 3.1,-8.22 7.3,-8.22 v 1.1 c -2,0 -3.8,1.54 -3.8,5.12 0,2.5 1.3,8.03 2.9,10.72 1.8,3.05 4.2,4.53 6.1,4.53 2.5,0 3.9,-2.19 3.9,-5.12 0,-2.14 -1.1,-7.29 -2.7,-10.27 -1.5,-2.73 -4,-4.98 -6.4,-4.98 v 0 -1.1 c 6.2,0 12.6,7.08 12.6,14.39 z"
           inkscape:connector-curvature="0"
           style="fill:#000000;stroke-width:0" /><path
           id="path1143"
           d="m 1463.4,420.54 v 0.01 0.03 0.02 0.04 l 0.1,0.05 v 0.05 0.06 0.07 l 0.1,0.08 v 0.08 0.08 l 0.1,0.1 0.1,0.2 0.1,0.23 0.1,0.24 0.1,0.26 0.1,0.27 0.2,0.28 0.1,0.29 0.2,0.3 0.2,0.31 0.2,0.3 0.2,0.3 0.2,0.31 0.3,0.29 0.2,0.29 0.3,0.28 0.3,0.27 0.3,0.25 0.2,0.24 0.4,0.21 0.3,0.2 0.2,0.09 0.1,0.08 0.2,0.08 0.2,0.06 0.1,0.07 0.2,0.05 0.2,0.05 0.2,0.04 0.2,0.03 0.2,0.02 0.2,0.02 h 0.2 c 0.2,0 1.6,0 2.6,-0.69 -1.7,-0.56 -1.9,-2.15 -1.9,-2.39 0,-0.65 0.5,-1.61 1.8,-1.61 0.9,0 2.4,0.71 2.4,2.64 0,2.6 -3.2,3.14 -4.9,3.14 -3.4,0 -5.2,-2.48 -6,-3.57 -0.6,2.64 -2.5,3.57 -4.1,3.57 -1.8,0 -2.8,-1.14 -3.6,-2.64 -1,-1.98 -1.6,-4.92 -1.6,-5.03 0,-0.5 0.5,-0.5 0.7,-0.5 0.7,0 0.7,0.07 1,1.16 0.9,3.48 1.8,5.92 3.4,5.92 1.3,0 1.3,-1.44 1.3,-1.98 0,-0.8 -0.2,-1.75 -0.4,-2.55 l -3.7,-14.95 c -0.1,-0.3 -0.2,-0.55 -0.2,-0.69 0,-0.55 0.4,-1.3 1.4,-1.3 1.5,0 1.9,1.44 2,1.85 z"
           inkscape:connector-curvature="0"
           style="fill:#000000;stroke-width:0" /><path
           id="path1145"
           d="m 1488,413.32 v 0.03 0.02 0.02 0.02 0.02 0.02 0.02 0.02 0.02 0.01 0.02 0.02 0.01 0.02 0.01 0.01 0.02 l -0.1,0.01 v 0.02 0.02 0.02 0.02 l -0.1,0.02 v 0.01 0.01 0.01 l -0.1,0.01 v 0.01 0.01 h -0.1 v 0.01 0 0.01 h -0.1 v 0 h -0.1 v 0 h -0.1 c -0.7,0 -0.7,-0.11 -0.9,-0.84 -0.4,-1.45 -1.7,-6.23 -4.6,-6.23 -0.4,0 -1.1,0.04 -1.1,1.39 0,1.29 0.7,2.93 1.3,4.78 l 3.2,8.53 c 0.5,1.44 0.6,1.84 0.6,2.78 0,2.75 -1.9,3.98 -3.7,3.98 -4.7,0 -6.4,-7.42 -6.4,-7.67 0,-0.5 0.5,-0.5 0.7,-0.5 0.7,0 0.7,0.11 0.9,0.8 0.5,1.66 1.8,6.28 4.6,6.28 0.6,0 1.2,-0.25 1.2,-1.39 0,-1.2 -0.6,-2.64 -0.9,-3.59 l -1.5,-4.13 c -0.7,-1.65 -1.3,-3.3 -1.9,-4.94 -0.7,-1.89 -0.9,-2.43 -0.9,-3.43 0,-1.94 1.2,-3.99 3.8,-3.99 4.7,0 6.3,7.47 6.3,7.67 z"
           inkscape:connector-curvature="0"
           style="fill:#000000;stroke-width:0" /><path
           id="path1147"
           d="m 1487.8,437.23 v 0.06 0.05 0.06 0.05 0.06 0.05 l -0.1,0.1 v 0.1 0.09 0.08 l -0.1,0.09 v 0.07 l -0.1,0.08 v 0.07 l -0.1,0.06 v 0.07 l -0.1,0.05 v 0.06 l -0.1,0.05 -0.1,0.04 v 0.05 l -0.1,0.04 -0.1,0.03 v 0.04 l -0.1,0.02 -0.1,0.03 -0.1,0.02 v 0.02 l -0.1,0.02 -0.1,0.02 v 0.01 l -0.1,0.01 h -0.1 v 0.01 h -0.1 c -1.1,0 -2.4,-1 -2.4,-2.39 0,-1.25 1,-1.66 1.7,-1.66 1,0 2.4,0.95 2.4,2.39 z"
           inkscape:connector-curvature="0"
           style="fill:#000000;stroke-width:0" /><path
           id="path1149"
           d="m 1503.6,408.84 -1,-4.19 c -0.6,-2.48 -0.9,-3.53 -2.3,-5.23 -2,-2.35 -4,-2.35 -4.7,-2.35 -0.7,0 -2.2,0 -3.6,0.57 1,0.39 1.6,1.43 1.6,2.28 0,0.65 -0.4,1.59 -1.7,1.59 -0.9,0 -2.5,-0.69 -2.5,-2.64 0,-1.98 1.9,-2.89 6,-2.89 5.3,0 9.1,3.3 10,7.08 l 5.4,21.83 c 0.3,0.75 0.3,0.84 0.3,1.04 0,1.05 -0.9,1.3 -1.4,1.3 -0.6,0 -1.8,-0.41 -1.9,-1.84 -0.7,1.43 -2.1,2.82 -4.2,2.82 v -1.09 c 3,0 3.4,-4.19 3.4,-4.58 l -0.1,-0.7 -2.3,-9.06 c -0.4,-1.6 -3.4,-5.49 -6.2,-5.49 -2.6,0 -2.7,3.78 -2.7,4.35 0,2.39 1.4,8.22 2.5,10.56 1.2,2.69 3.4,4.92 5.4,4.92 v 1.09 c -5.6,0 -11.3,-7.37 -11.3,-14.39 0,-4.23 2.3,-7.62 6,-7.62 2.6,0 4.7,2.05 5.3,2.64 z"
           inkscape:connector-curvature="0"
           style="fill:#000000;stroke-width:0" /><path
           id="path1151"
           d="m 1526.2,413.32 v 0.03 0.02 0.02 0.02 0.02 0.02 0.02 0.02 0.02 0.01 l -0.1,0.02 v 0.02 0.01 0.02 0.01 0.01 0.02 0.01 0.02 0.02 l -0.1,0.02 v 0.02 0.02 0.01 l -0.1,0.01 v 0.01 0.01 0.01 l -0.1,0.01 v 0 0.01 h -0.1 v 0.01 0 h -0.1 v 0 h -0.1 -0.1 c -0.6,0 -0.6,-0.11 -0.8,-0.84 -0.4,-1.45 -1.7,-6.23 -4.6,-6.23 -0.4,0 -1.1,0.04 -1.1,1.39 0,1.29 0.6,2.93 1.3,4.78 l 3.2,8.53 c 0.5,1.44 0.5,1.84 0.5,2.78 0,2.75 -1.8,3.98 -3.7,3.98 -4.7,0 -6.4,-7.42 -6.4,-7.67 0,-0.5 0.5,-0.5 0.8,-0.5 0.6,0 0.7,0.11 0.9,0.8 0.4,1.66 1.7,6.28 4.6,6.28 0.6,0 1.1,-0.25 1.1,-1.39 0,-1.2 -0.5,-2.64 -0.9,-3.59 l -1.5,-4.13 c -0.6,-1.65 -1.2,-3.3 -1.8,-4.94 -0.7,-1.89 -0.9,-2.43 -0.9,-3.43 0,-1.94 1.2,-3.99 3.8,-3.99 4.6,0 6.3,7.47 6.3,7.67 z"
           inkscape:connector-curvature="0"
           style="fill:#000000;stroke-width:0" /><path
           id="path1153"
           d="m 1525.9,437.23 v 0.06 0.05 0.06 0.05 0.06 0.05 0.1 0.1 l -0.1,0.09 v 0.08 0.09 l -0.1,0.07 v 0.08 l -0.1,0.07 v 0.06 l -0.1,0.07 v 0.05 l -0.1,0.06 v 0.05 l -0.1,0.04 -0.1,0.05 v 0.04 l -0.1,0.03 -0.1,0.04 -0.1,0.02 v 0.03 l -0.1,0.02 -0.1,0.02 v 0.02 l -0.1,0.02 -0.1,0.01 v 0.01 h -0.1 l -0.1,0.01 h -0.1 c -1,0 -2.3,-1 -2.3,-2.39 0,-1.25 1,-1.66 1.6,-1.66 1,0 2.4,0.95 2.4,2.39 z"
           inkscape:connector-curvature="0"
           style="fill:#000000;stroke-width:0" /><path
           id="path1155"
           d="m 1536.4,414.92 0.1,0.41 0.1,0.4 0.1,0.4 0.1,0.41 0.1,0.4 0.1,0.4 0.1,0.4 0.1,0.41 c 0.6,2.55 0.6,2.6 1.5,4.05 0.7,1.19 2.9,4.92 6.7,4.92 2.2,0 2.3,-2.23 2.3,-3.28 0,-3.09 -2.2,-9.02 -2.9,-11.02 -0.6,-1.68 -0.8,-2.14 -0.8,-3.18 0,-2.19 1.4,-3.99 3.8,-3.99 4.6,0 6.3,7.42 6.3,7.67 0,0.5 -0.4,0.5 -0.7,0.5 -0.7,0 -0.7,-0.11 -0.9,-0.84 -0.4,-1.34 -1.7,-6.23 -4.6,-6.23 -1,0 -1.1,0.75 -1.1,1.45 0,1.23 0.5,2.53 0.9,3.73 1,2.64 3.1,8.22 3.1,11.11 0,4.08 -2.8,5.17 -5.2,5.17 -4.1,0 -6.5,-2.98 -7.2,-3.93 -0.3,2.45 -2,3.93 -4.2,3.93 -1.8,0 -2.7,-1.14 -3.5,-2.64 -1,-1.98 -1.6,-4.92 -1.6,-5.03 0,-0.5 0.5,-0.5 0.7,-0.5 0.7,0 0.7,0.07 1,1.16 0.9,3.48 1.8,5.92 3.4,5.92 1.2,0 1.2,-1.44 1.2,-1.98 0,-0.8 -0.1,-1.75 -0.3,-2.55 l -3.7,-14.95 c -0.1,-0.3 -0.2,-0.55 -0.2,-0.69 0,-0.55 0.4,-1.3 1.4,-1.3 0.6,0 1.5,0.35 1.8,1.3 z"
           inkscape:connector-curvature="0"
           style="fill:#000000;stroke-width:0" /><path
           id="path1157"
           d="m 1570.3,409.14 v -0.23 l 0.1,-0.21 0.1,-0.21 0.1,-0.2 v -0.2 l 0.1,-0.18 0.1,-0.18 0.1,-0.17 0.1,-0.16 0.1,-0.15 0.2,-0.15 0.1,-0.14 0.1,-0.13 0.1,-0.12 0.2,-0.12 0.1,-0.11 0.1,-0.1 0.2,-0.1 0.1,-0.09 0.2,-0.08 0.1,-0.07 0.2,-0.07 0.2,-0.06 0.1,-0.06 0.2,-0.04 0.1,-0.05 0.2,-0.03 0.2,-0.03 0.1,-0.02 0.2,-0.02 h 0.1 l 0.2,-0.01 c 1.8,0 2.9,1.25 3.7,2.78 0.9,1.91 1.5,4.8 1.5,4.89 0,0.5 -0.5,0.5 -0.8,0.5 -0.6,0 -0.6,-0.04 -1,-1.14 -0.6,-2.79 -1.6,-5.93 -3.3,-5.93 -1.3,0 -1.3,1.34 -1.3,2.04 0,0.35 0,1.14 0.4,2.53 l 3.4,13.57 c 0.2,0.68 0.2,0.79 0.2,1.04 0,1.05 -0.9,1.3 -1.4,1.3 -1.6,0 -1.9,-1.7 -2,-1.95 -0.9,2.14 -2.5,2.93 -4.1,2.93 v -1.09 c 2.2,0 3.4,-2.59 3.4,-4.69 0,-0.09 0,-0.34 -0.1,-0.64 v 0 l -2.4,-9.42 c -0.4,-1.59 -3.5,-5.62 -6.2,-5.62 -2.3,0 -2.7,2.93 -2.7,4.43 0,2.49 1.5,8.32 2.4,10.41 1.2,3.05 3.5,5.53 5.6,5.53 v 1.09 c -5.5,0 -11.4,-7.56 -11.4,-14.84 0,-4.23 2.3,-7.72 6,-7.72 1.8,0 4,1.05 6,3.49 z"
           inkscape:connector-curvature="0"
           style="fill:#000000;stroke-width:0" /><path
           id="path1159"
           d="m 1593.4,439.53 v 0.01 0.02 0.02 0.02 l 0.1,0.02 v 0.02 0.02 0.02 0.02 0.03 0.04 0.05 0.05 0.05 0.03 0.02 0.02 l 0.1,0.02 v 0.03 0.02 0.02 0.02 0.01 0.02 0.02 0.01 0.01 0.01 c 0,0.44 -0.3,0.6 -0.7,0.6 -0.2,0 -0.7,-0.05 -0.8,-0.11 l -5,-0.39 c -0.5,-0.05 -1.1,-0.1 -1.1,-1.05 0,-0.55 0.5,-0.55 1.2,-0.55 2.4,0 2.5,-0.34 2.5,-0.84 0,-0.16 -0.2,-0.8 -0.2,-0.84 l -6.2,-24.93 c 0,-0.2 -0.3,-1.18 -0.3,-1.93 0,-2.64 1.8,-4.49 4.2,-4.49 1.9,0 2.9,1.35 3.5,2.6 0.9,1.73 1.6,4.92 1.6,5.07 0,0.5 -0.4,0.5 -0.8,0.5 -0.2,0 -0.5,0 -0.7,-0.25 l -0.3,-1.25 c -0.9,-3.48 -1.8,-5.57 -3.2,-5.57 -1.3,0 -1.3,1.34 -1.3,2.04 0,0.35 0,1.1 0.3,2.28 z"
           inkscape:connector-curvature="0"
           style="fill:#000000;stroke-width:0" /><path
           id="path1161"
           d="m 1606.7,406.25 v 0.3 0.3 l -0.1,0.29 v 0.28 0.27 0.26 l -0.1,0.26 v 0.24 l -0.1,0.24 -0.1,0.23 v 0.22 l -0.1,0.21 -0.1,0.2 -0.1,0.19 -0.1,0.19 -0.1,0.17 -0.1,0.16 -0.1,0.16 -0.1,0.14 -0.1,0.13 -0.2,0.13 -0.1,0.11 -0.1,0.1 -0.2,0.1 -0.1,0.08 -0.2,0.07 -0.1,0.06 -0.2,0.05 -0.2,0.04 -0.2,0.03 -0.1,0.01 -0.2,0.01 c -1.7,0 -2.7,-1.25 -2.7,-2.64 0,-1.34 1,-2.64 2.7,-2.64 0.6,0 1.2,0.2 1.7,0.64 0.2,0.11 0.2,0.16 0.3,0.16 0,0 0.1,-0.05 0.1,-0.75 0,-3.69 -1.8,-6.68 -3.4,-8.32 -0.5,-0.54 -0.5,-0.65 -0.5,-0.79 0,-0.36 0.2,-0.55 0.5,-0.55 0.5,0 4.5,3.83 4.5,9.66 z"
           inkscape:connector-curvature="0"
           style="fill:#000000;stroke-width:0" /><path
           id="path1163"
           d="m 1631.6,426.12 h 4.2 c 0.9,0 1.4,0 1.4,0.95 0,0.6 -0.4,0.6 -1.2,0.6 h -4 l 1.8,7.37 c 0.2,0.71 0.2,0.8 0.2,1.05 0,1.05 -0.8,1.3 -1.3,1.3 -1.3,0 -1.7,-1.05 -1.9,-1.8 l -2,-7.92 h -4.2 c -0.9,0 -1.4,0 -1.4,-0.94 0,-0.61 0.4,-0.61 1.2,-0.61 h 4 l -3.6,-14.3 c 0,-0.18 -0.2,-0.98 -0.2,-1.68 0,-2.5 1.6,-4.49 4.2,-4.49 5,0 7.6,7.42 7.6,7.67 0,0.5 -0.4,0.5 -0.8,0.5 -0.6,0 -0.6,-0.04 -0.9,-0.95 -1,-2.39 -2.9,-6.12 -5.8,-6.12 -1.3,0 -1.3,1.25 -1.3,2.04 0,0.35 0,1.14 0.3,2.53 z"
           inkscape:connector-curvature="0"
           style="fill:#000000;stroke-width:0" /><path
           id="path1165"
           d="m 1652.6,409.14 0.1,-0.23 v -0.21 l 0.1,-0.21 0.1,-0.2 v -0.2 l 0.1,-0.18 0.1,-0.18 0.1,-0.17 0.1,-0.16 0.1,-0.15 0.2,-0.15 0.1,-0.14 0.1,-0.13 0.1,-0.12 0.2,-0.12 0.1,-0.11 0.2,-0.1 0.1,-0.1 0.1,-0.09 0.2,-0.08 0.2,-0.07 0.1,-0.07 0.2,-0.06 0.1,-0.06 0.2,-0.04 0.1,-0.05 0.2,-0.03 0.2,-0.03 0.1,-0.02 0.2,-0.02 h 0.2 l 0.1,-0.01 c 1.9,0 2.9,1.25 3.7,2.78 0.9,1.91 1.5,4.8 1.5,4.89 0,0.5 -0.4,0.5 -0.8,0.5 -0.6,0 -0.6,-0.04 -0.9,-1.14 -0.7,-2.79 -1.7,-5.93 -3.4,-5.93 -1.3,0 -1.3,1.34 -1.3,2.04 0,0.35 0,1.14 0.4,2.53 l 3.4,13.57 c 0.2,0.68 0.2,0.79 0.2,1.04 0,1.05 -0.9,1.3 -1.4,1.3 -1.6,0 -1.9,-1.7 -2,-1.95 -0.9,2.14 -2.5,2.93 -4.1,2.93 v -1.09 c 2.2,0 3.4,-2.59 3.4,-4.69 0,-0.09 0,-0.34 -0.1,-0.64 v 0 l -2.4,-9.42 c -0.3,-1.59 -3.4,-5.62 -6.2,-5.62 -2.3,0 -2.7,2.93 -2.7,4.43 0,2.49 1.5,8.32 2.4,10.41 1.3,3.05 3.6,5.53 5.6,5.53 v 1.09 c -5.5,0 -11.4,-7.56 -11.4,-14.84 0,-4.23 2.3,-7.72 6,-7.72 1.8,0 4,1.05 6,3.49 z"
           inkscape:connector-curvature="0"
           style="fill:#000000;stroke-width:0" /><path
           id="path1167"
           d="m 1673.5,420.54 v 0.01 0.03 0.02 0.04 l 0.1,0.05 v 0.05 0.06 0.07 l 0.1,0.08 v 0.08 0.08 l 0.1,0.1 v 0.2 l 0.1,0.23 0.2,0.24 0.1,0.26 0.1,0.27 0.2,0.28 0.1,0.29 0.2,0.3 0.2,0.31 0.2,0.3 0.2,0.3 0.2,0.31 0.3,0.29 0.2,0.29 0.3,0.28 0.3,0.27 0.2,0.25 0.3,0.24 0.4,0.21 0.3,0.2 0.2,0.09 0.1,0.08 0.2,0.08 0.2,0.06 0.1,0.07 0.2,0.05 0.2,0.05 0.2,0.04 0.2,0.03 0.2,0.02 0.2,0.02 h 0.2 c 0.2,0 1.6,0 2.6,-0.69 -1.7,-0.56 -1.9,-2.15 -1.9,-2.39 0,-0.65 0.5,-1.61 1.8,-1.61 0.9,0 2.4,0.71 2.4,2.64 0,2.6 -3.2,3.14 -4.9,3.14 -3.4,0 -5.2,-2.48 -6,-3.57 -0.5,2.64 -2.5,3.57 -4.1,3.57 -1.8,0 -2.8,-1.14 -3.6,-2.64 -1,-1.98 -1.6,-4.92 -1.6,-5.03 0,-0.5 0.5,-0.5 0.7,-0.5 0.7,0 0.7,0.07 1,1.16 0.9,3.48 1.8,5.92 3.4,5.92 1.3,0 1.3,-1.44 1.3,-1.98 0,-0.8 -0.2,-1.75 -0.4,-2.55 l -3.7,-14.95 c -0.1,-0.3 -0.2,-0.55 -0.2,-0.69 0,-0.55 0.4,-1.3 1.4,-1.3 1.5,0 1.9,1.44 1.9,1.85 z"
           inkscape:connector-curvature="0"
           style="fill:#000000;stroke-width:0" /><path
           id="path1169"
           d="m 1696,408.84 -1.1,-4.19 c -0.6,-2.48 -0.9,-3.53 -2.3,-5.23 -2,-2.35 -4,-2.35 -4.7,-2.35 -0.7,0 -2.2,0 -3.5,0.57 1,0.39 1.5,1.43 1.5,2.28 0,0.65 -0.4,1.59 -1.7,1.59 -0.9,0 -2.4,-0.69 -2.4,-2.64 0,-1.98 1.8,-2.89 6,-2.89 5.2,0 9,3.3 10,7.08 l 5.4,21.83 c 0.2,0.75 0.2,0.84 0.2,1.04 0,1.05 -0.9,1.3 -1.4,1.3 -0.6,0 -1.7,-0.41 -1.9,-1.84 -0.7,1.43 -2,2.82 -4.2,2.82 v -1.09 c 3,0 3.5,-4.19 3.5,-4.58 l -0.2,-0.7 -2.2,-9.06 c -0.4,-1.6 -3.5,-5.49 -6.2,-5.49 -2.7,0 -2.8,3.78 -2.8,4.35 0,2.39 1.5,8.22 2.5,10.56 1.3,2.69 3.5,4.92 5.4,4.92 v 1.09 c -5.6,0 -11.3,-7.37 -11.3,-14.39 0,-4.23 2.3,-7.62 6.1,-7.62 2.5,0 4.7,2.05 5.3,2.64 z"
           inkscape:connector-curvature="0"
           style="fill:#000000;stroke-width:0" /><path
           id="path1171"
           d="m 1713.9,417.71 0.2,0.01 h 0.2 0.1 0.2 l 0.2,0.01 h 0.2 l 0.2,0.01 0.2,0.01 0.2,0.01 0.2,0.02 0.2,0.01 0.3,0.02 0.4,0.04 0.5,0.05 0.5,0.07 0.5,0.07 0.5,0.09 0.5,0.11 0.5,0.11 0.3,0.07 0.2,0.07 0.3,0.07 0.2,0.08 0.2,0.08 0.3,0.09 c 3.9,1.59 3.9,4.83 3.9,5.17 0,2.3 -1.8,4.23 -5,4.23 v -1.09 c 2,0 3.1,-1.34 3.1,-3.03 0,-5.28 -8.2,-5.28 -9.9,-5.28 h -1 c 2.1,8.17 7.3,8.31 7.8,8.31 v 1.09 c -5.3,0 -12.4,-5.03 -12.4,-13.84 0,-4.48 2.4,-8.72 7.1,-8.72 6.4,0 10.5,4.99 10.5,5.74 0,0.25 -0.3,0.79 -0.7,0.79 -0.3,0 -0.3,-0.06 -0.7,-0.54 -3.7,-4.69 -8.1,-4.89 -9,-4.89 -3.2,0 -3.7,3.53 -3.7,5.48 0,1.89 0.5,4.13 0.8,5.48 z"
           inkscape:connector-curvature="0"
           style="fill:#000000;stroke-width:0" /><path
           id="path1173"
           d="m 1737.9,426.12 h 4.2 c 0.9,0 1.4,0 1.4,0.95 0,0.6 -0.4,0.6 -1.2,0.6 h -4 l 1.9,7.37 c 0.1,0.71 0.1,0.8 0.1,1.05 0,1.05 -0.8,1.3 -1.3,1.3 -1.2,0 -1.7,-1.05 -1.9,-1.8 l -2,-7.92 h -4.2 c -0.9,0 -1.4,0 -1.4,-0.94 0,-0.61 0.4,-0.61 1.2,-0.61 h 4 l -3.6,-14.3 c 0,-0.18 -0.2,-0.98 -0.2,-1.68 0,-2.5 1.6,-4.49 4.2,-4.49 5.1,0 7.6,7.42 7.6,7.67 0,0.5 -0.4,0.5 -0.8,0.5 -0.6,0 -0.6,-0.04 -0.9,-0.95 -0.9,-2.39 -2.9,-6.12 -5.8,-6.12 -1.3,0 -1.3,1.25 -1.3,2.04 0,0.35 0,1.14 0.3,2.53 z"
           inkscape:connector-curvature="0"
           style="fill:#000000;stroke-width:0" /><path
           id="path1175"
           d="m 1781.9,440.12 v 0.02 0.02 0.04 0.04 0.05 0.04 0.05 0.05 0.04 0.05 l 0.1,0.05 v 0.04 0.05 0.04 0.04 0.02 0.02 0.02 0.02 c 0,0.1 -0.1,0.5 -0.6,0.5 -0.1,0 -0.3,0 -0.8,-0.54 l -3.1,-3.69 c -2.2,3.44 -5.1,4.23 -7.5,4.23 -10.3,0 -21,-11.2 -21,-22.92 0,-8.17 5.3,-13.29 12.2,-13.29 9.7,0 15.1,10.65 15.1,13.04 0,0.5 -0.5,0.5 -0.7,0.5 -0.3,0 -0.7,0 -0.8,-0.39 -2.6,-8.42 -8.8,-11.61 -12.9,-11.61 -4.2,0 -8.6,2.78 -8.6,9.86 0,3.1 1.3,10.91 5.3,16.39 3.3,4.58 7.9,6.88 11.8,6.88 5.2,0 7,-4.78 7,-9.11 0,-1.3 -0.2,-2.89 -0.2,-3.05 0,-0.5 0.5,-0.5 0.7,-0.5 0.6,0 0.7,0.05 0.9,0.91 z"
           inkscape:connector-curvature="0"
           style="fill:#000000;stroke-width:0" /><path
           id="path1177"
           d="m 1792.2,439.53 0.1,0.01 v 0.02 0.02 0.02 0.02 0.02 0.02 0.02 0.02 0.03 0.04 0.05 0.05 l 0.1,0.05 v 0.03 0.02 0.02 0.02 0.03 0.02 0.02 0.02 0.01 0.02 0.02 0.01 0.01 0.01 c 0,0.44 -0.3,0.6 -0.7,0.6 -0.2,0 -0.6,-0.05 -0.8,-0.11 l -4.9,-0.39 c -0.6,-0.05 -1.2,-0.1 -1.2,-1.05 0,-0.55 0.5,-0.55 1.2,-0.55 2.4,0 2.5,-0.34 2.5,-0.84 0,-0.16 -0.1,-0.8 -0.1,-0.84 l -6.3,-24.93 c 0,-0.2 -0.3,-1.18 -0.3,-1.93 0,-2.64 1.8,-4.49 4.2,-4.49 1.9,0 2.9,1.35 3.6,2.6 0.8,1.73 1.5,4.92 1.5,5.07 0,0.5 -0.4,0.5 -0.7,0.5 -0.3,0 -0.6,0 -0.7,-0.25 l -0.4,-1.25 c -0.8,-3.48 -1.8,-5.57 -3.2,-5.57 -1.3,0 -1.3,1.34 -1.3,2.04 0,0.35 0,1.1 0.3,2.28 z"
           inkscape:connector-curvature="0"
           style="fill:#000000;stroke-width:0" /><path
           id="path1179"
           d="m 1807.3,409.14 v -0.23 l 0.1,-0.21 v -0.21 l 0.1,-0.2 0.1,-0.2 0.1,-0.18 0.1,-0.18 0.1,-0.17 0.1,-0.16 0.1,-0.15 0.1,-0.15 0.1,-0.14 0.2,-0.13 0.1,-0.12 0.1,-0.12 0.2,-0.11 0.1,-0.1 0.2,-0.1 0.1,-0.09 0.2,-0.08 0.1,-0.07 0.2,-0.07 0.1,-0.06 0.2,-0.06 0.1,-0.04 0.2,-0.05 0.2,-0.03 0.1,-0.03 0.2,-0.02 0.2,-0.02 h 0.1 l 0.2,-0.01 c 1.8,0 2.9,1.25 3.6,2.78 0.9,1.91 1.5,4.8 1.5,4.89 0,0.5 -0.4,0.5 -0.7,0.5 -0.6,0 -0.7,-0.04 -1,-1.14 -0.7,-2.79 -1.6,-5.93 -3.3,-5.93 -1.3,0 -1.3,1.34 -1.3,2.04 0,0.35 0,1.14 0.3,2.53 l 3.4,13.57 c 0.2,0.68 0.2,0.79 0.2,1.04 0,1.05 -0.8,1.3 -1.3,1.3 -1.6,0 -2,-1.7 -2,-1.95 -0.9,2.14 -2.5,2.93 -4.1,2.93 v -1.09 c 2.2,0 3.4,-2.59 3.4,-4.69 0,-0.09 -0.1,-0.34 -0.2,-0.64 v 0 l -2.3,-9.42 c -0.4,-1.59 -3.5,-5.62 -6.2,-5.62 -2.4,0 -2.8,2.93 -2.8,4.43 0,2.49 1.6,8.32 2.5,10.41 1.2,3.05 3.5,5.53 5.6,5.53 v 1.09 c -5.6,0 -11.5,-7.56 -11.5,-14.84 0,-4.23 2.3,-7.72 6.1,-7.72 1.8,0 4,1.05 6,3.49 z"
           inkscape:connector-curvature="0"
           style="fill:#000000;stroke-width:0" /><path
           id="path1181"
           d="m 1827.6,416.01 0.4,-0.09 0.4,-0.1 0.4,-0.1 0.2,-0.06 0.2,-0.06 0.2,-0.06 0.2,-0.06 0.2,-0.07 0.2,-0.08 0.2,-0.07 0.1,-0.09 0.2,-0.09 0.2,-0.09 0.1,-0.1 0.1,-0.11 0.2,-0.12 0.1,-0.12 0.1,-0.13 0.2,-0.14 0.1,-0.15 0.1,-0.16 v -0.16 l 0.1,-0.18 0.1,-0.19 v -0.2 l 0.1,-0.21 v -0.22 -0.11 -0.12 -0.12 -0.13 c 0,-1.59 -1.3,-5.57 -6.4,-5.57 -1.1,0 -4,0.25 -4.8,2.79 2.5,0.25 2.5,2.33 2.5,2.44 0,0.94 -0.6,1.59 -1.7,1.59 -1.1,0 -2.5,-0.84 -2.5,-3.09 0,-3.03 2.9,-4.83 6.4,-4.83 7.5,0 9.4,6.08 9.4,8.38 0,4.33 -3.9,5.22 -5.9,5.67 -1.4,0.3 -3.2,0.7 -3.2,2.84 0,1.19 1,4.58 5,4.58 1.4,0 3.2,-0.5 3.7,-2.44 -1.6,-0.2 -2,-1.54 -2,-2.04 0,-0.55 0.3,-1.39 1.5,-1.39 0.9,0 2.2,0.59 2.2,2.73 0,2.3 -2.1,4.23 -5.3,4.23 -5.9,0 -7.9,-4.78 -7.9,-7.37 0,-3.83 3.2,-4.53 4.6,-4.83 z"
           inkscape:connector-curvature="0"
           style="fill:#000000;stroke-width:0" /><path
           id="path1183"
           d="m 1848,416.01 0.4,-0.09 0.4,-0.1 0.4,-0.1 0.2,-0.06 0.2,-0.06 0.2,-0.06 0.2,-0.06 0.2,-0.07 0.2,-0.08 0.2,-0.07 0.1,-0.09 0.2,-0.09 0.2,-0.09 0.1,-0.1 0.1,-0.11 0.2,-0.12 0.1,-0.12 0.1,-0.13 0.2,-0.14 0.1,-0.15 0.1,-0.16 v -0.16 l 0.1,-0.18 0.1,-0.19 v -0.2 l 0.1,-0.21 v -0.22 -0.11 -0.12 -0.12 -0.13 c 0,-1.59 -1.3,-5.57 -6.4,-5.57 -1.1,0 -4,0.25 -4.8,2.79 2.5,0.25 2.5,2.33 2.5,2.44 0,0.94 -0.6,1.59 -1.7,1.59 -1.1,0 -2.5,-0.84 -2.5,-3.09 0,-3.03 2.9,-4.83 6.4,-4.83 7.5,0 9.4,6.08 9.4,8.38 0,4.33 -3.9,5.22 -5.9,5.67 -1.4,0.3 -3.2,0.7 -3.2,2.84 0,1.19 1,4.58 5,4.58 1.4,0 3.2,-0.5 3.7,-2.44 -1.6,-0.2 -2,-1.54 -2,-2.04 0,-0.55 0.3,-1.39 1.5,-1.39 0.9,0 2.2,0.59 2.2,2.73 0,2.3 -2.1,4.23 -5.4,4.23 -5.8,0 -7.8,-4.78 -7.8,-7.37 0,-3.83 3.2,-4.53 4.6,-4.83 z"
           inkscape:connector-curvature="0"
           style="fill:#000000;stroke-width:0" /><path
           id="path1185"
           d="m 1874.6,418.65 v 0.37 0.39 0.39 l -0.1,0.41 v 0.84 l -0.1,0.88 v 0.92 l -0.1,0.95 -0.2,0.97 -0.1,1.01 -0.2,1.02 -0.3,1.03 -0.2,1.05 -0.3,1.06 -0.4,1.07 -0.4,1.07 -0.2,0.53 -0.2,0.53 -0.3,0.53 -0.2,0.53 c -3,6.12 -7.3,9.36 -7.8,9.36 -0.3,0 -0.5,-0.19 -0.5,-0.49 0,-0.15 0,-0.25 1,-1.15 4.9,-4.92 7.7,-12.85 7.7,-23.27 0,-8.51 -1.8,-17.28 -8,-23.56 -0.7,-0.59 -0.7,-0.7 -0.7,-0.84 0,-0.3 0.2,-0.5 0.5,-0.5 0.5,0 5,3.39 7.9,9.71 2.6,5.47 3.2,11 3.2,15.19 z"
           inkscape:connector-curvature="0"
           style="fill:#000000;stroke-width:0" /><path
           id="path1187"
           d="m 1893.9,418.65 v 0.37 0.39 0.39 0.41 l -0.1,0.84 v 0.88 l -0.1,0.92 -0.1,0.95 -0.2,0.97 -0.1,1.01 -0.2,1.02 -0.3,1.03 -0.2,1.05 -0.3,1.06 -0.4,1.07 -0.4,1.07 -0.2,0.53 -0.2,0.53 -0.2,0.53 -0.3,0.53 c -3,6.12 -7.3,9.36 -7.8,9.36 -0.2,0 -0.5,-0.19 -0.5,-0.49 0,-0.15 0,-0.25 1,-1.15 4.9,-4.92 7.7,-12.85 7.7,-23.27 0,-8.51 -1.8,-17.28 -8,-23.56 -0.7,-0.59 -0.7,-0.7 -0.7,-0.84 0,-0.3 0.3,-0.5 0.5,-0.5 0.5,0 5,3.39 8,9.71 2.5,5.47 3.1,11 3.1,15.19 z"
           inkscape:connector-curvature="0"
           style="fill:#000000;stroke-width:0" /><path
           id="path1189"
           d="m 1913.2,418.65 v 0.37 0.39 0.39 0.41 l -0.1,0.84 v 0.88 l -0.1,0.92 -0.1,0.95 -0.1,0.97 -0.2,1.01 -0.2,1.02 -0.2,1.03 -0.3,1.05 -0.3,1.06 -0.4,1.07 -0.3,1.07 -0.3,0.53 -0.2,0.53 -0.2,0.53 -0.3,0.53 c -3,6.12 -7.2,9.36 -7.7,9.36 -0.3,0 -0.5,-0.19 -0.5,-0.49 0,-0.15 0,-0.25 0.9,-1.15 4.9,-4.92 7.7,-12.85 7.7,-23.27 0,-8.51 -1.8,-17.28 -8,-23.56 -0.6,-0.59 -0.6,-0.7 -0.6,-0.84 0,-0.3 0.2,-0.5 0.5,-0.5 0.5,0 4.9,3.39 7.9,9.71 2.5,5.47 3.1,11 3.1,15.19 z"
           inkscape:connector-curvature="0"
           style="fill:#000000;stroke-width:0" /><path
           id="path1191"
           d="m 1020.2,375.62 v 0.05 0.05 0.05 0.05 0.05 0.05 0.04 0.05 0.04 0.05 0.04 0.04 0.07 0.07 0.07 0.07 0.05 0.06 0.05 0.05 0.04 0.04 l -0.1,0.04 v 0.03 0.04 0.02 l -0.1,0.03 v 0.02 0.02 l -0.1,0.02 v 0.01 0.01 l -0.1,0.01 v 0.01 l -0.1,0.01 v 0 h -0.1 -0.1 c -3,0.05 -7.9,0.44 -12.4,2.64 -5.4,2.69 -7.44,5.83 -8.69,7.77 -0.14,0.25 -0.45,0.25 -1.09,0.25 -1.14,0 -1.2,-0.05 -1.2,-1.3 v -0.79 c 6.78,-12.21 17.98,-14.55 23.08,-14.55 1,0 1,0.05 1,1.39 z"
           inkscape:connector-curvature="0"
           style="fill:#000000;stroke-width:0" /><polyline
           id="polyline1193"
           points="1020,371 1435.7,371 1435.7,377 1020,377 "
           style="fill:#000000;fill-rule:nonzero;stroke-width:0" /><path
           id="path1195"
           d="m 1459.1,362.48 -0.7,1.11 -0.7,1.06 -0.7,1.01 -0.7,0.95 -0.7,0.89 -0.8,0.85 -0.7,0.8 -0.8,0.75 -0.8,0.7 -0.8,0.66 -0.8,0.61 -0.8,0.57 -0.8,0.53 -0.8,0.49 -0.8,0.45 -0.8,0.42 -0.8,0.37 -0.8,0.35 -0.8,0.31 -0.8,0.28 -0.7,0.25 -0.8,0.22 -0.7,0.19 -0.7,0.17 -0.7,0.14 -0.7,0.12 -0.6,0.09 -0.6,0.08 -0.6,0.06 -0.6,0.03 -0.5,0.03 h -0.5 c -1.1,0 -1.1,-0.06 -1.1,-1.4 v -3.19 c 0,-1.14 0,-1.39 0.7,-1.39 3.1,-0.05 8,-0.45 12.5,-2.64 5.4,-2.69 7.4,-5.83 8.7,-7.77 0.1,-0.25 0.4,-0.25 1.1,-0.25 1.1,0 1.2,0.05 1.2,1.3 z"
           inkscape:connector-curvature="0"
           style="fill:#000000;stroke-width:0" /><path
           id="path1197"
           d="m 1480.8,375.62 v 0.06 0.06 0.06 0.05 0.06 0.05 0.05 0.05 0.05 0.05 0.04 0.05 0.04 0.04 0.04 0.03 0.04 0.03 0.04 0.03 0.03 0.03 0.03 l -0.1,0.02 v 0.03 0.02 0.05 0.04 0.03 l -0.1,0.04 v 0.03 0.02 l -0.1,0.02 v 0.02 0.02 l -0.1,0.01 v 0.01 l -0.1,0.01 v 0.01 h -0.1 v 0 0 l -0.1,0.01 v 0 0 h -0.1 v 0 h -0.1 v 0 h -0.1 v 0 0 c -5.1,0 -16.4,-2.39 -23.1,-14.54 v -0.8 c 0,-1.25 0,-1.3 1.2,-1.3 0.9,0 1,0.05 1.2,0.39 4.1,6.53 11,10.07 21.1,10.27 0.6,0 0.6,0.34 0.6,1.39 z"
           inkscape:connector-curvature="0"
           style="fill:#000000;stroke-width:0" /><polyline
           id="polyline1199"
           points="1480,371 1895.7,371 1895.7,377 1480,377 "
           style="fill:#000000;fill-rule:nonzero;stroke-width:0" /><path
           id="path1201"
           d="m 1919.6,386.38 v 0.06 0.06 0.05 0.05 0.05 0.05 0.05 0.05 0.04 0.05 0.04 0.04 0.04 0.03 0.04 0.03 0.04 0.03 0.03 0.03 l -0.1,0.03 v 0.02 0.03 0.02 0.05 0.04 0.04 l -0.1,0.03 v 0.03 0.03 l -0.1,0.02 v 0.02 l -0.1,0.02 v 0.01 l -0.1,0.01 v 0.01 l -0.1,0.01 v 0 0 l -0.1,0.01 v 0 0 h -0.1 v 0.01 h -0.1 v 0 0 h -0.1 v 0 h -0.1 v 0 h -0.1 c -0.9,0 -1,-0.05 -1.2,-0.41 -4.1,-6.51 -11,-10.06 -21.1,-10.25 -0.6,0 -0.6,-0.36 -0.6,-1.4 v -3.19 c 0,-1.34 0,-1.39 1,-1.39 5.1,0 16.3,2.39 23.1,14.55 z"
           inkscape:connector-curvature="0"
           style="fill:#000000;stroke-width:0" /><path
           id="path1203"
           d="m 1345.7,319.24 -0.1,-0.09 v -0.09 -0.09 -0.08 l -0.1,-0.07 v -0.07 -0.07 -0.06 l -0.1,-0.06 v -0.05 -0.06 l -0.1,-0.04 v -0.05 -0.04 l -0.1,-0.04 v -0.03 l -0.1,-0.03 v -0.03 l -0.1,-0.03 v -0.02 l -0.1,-0.02 -0.1,-0.02 v -0.02 l -0.1,-0.01 -0.1,-0.01 -0.1,-0.01 -0.1,-0.01 -0.1,-0.01 h -0.1 l -0.1,-0.01 h -0.1 v 0 h -0.1 c -0.5,0 -0.9,0 -0.9,-0.77 0,-0.31 0.2,-0.5 0.5,-0.5 0.9,0 2,0.14 2.9,0.14 1.2,0 2.4,-0.14 3.6,-0.14 0.1,0 0.7,0 0.7,0.74 0,0.53 -0.4,0.53 -1,0.53 -0.7,0 -1.6,0 -1.6,0.41 0,0.21 0.2,1.01 0.3,1.54 l 1.3,5.16 c 0.5,-0.77 1.6,-1.95 3.4,-1.95 v 0.96 c -2.3,0 -2.8,2.9 -2.8,3.38 0,0.14 0,0.22 0.1,0.53 l 1.4,5.75 c 0.4,1.28 2.8,4.11 5,4.11 1.5,0 2.4,-1.47 2.4,-3.28 0,-1.74 -1,-5.53 -1.9,-7.11 -1.5,-2.75 -3.2,-3.38 -4.2,-3.38 v -0.96 c 4.3,0 8.7,4.98 8.7,10 0,3.51 -2.2,5.7 -4.9,5.7 -2.3,0 -4.1,-1.63 -4.8,-2.36 -0.6,1.91 -2.4,2.36 -3.4,2.36 -1.5,0 -2.2,-0.97 -2.7,-1.84 -0.8,-1.15 -1.3,-3.27 -1.3,-3.49 0,-0.45 0.4,-0.45 0.7,-0.45 0.6,0 0.7,0.03 0.9,1.01 0.6,2.41 1.3,3.8 2.3,3.8 1.1,0 1.1,-1.25 1.1,-1.67 0,-0.39 0,-0.63 -0.1,-1.19 z"
           inkscape:connector-curvature="0"
           style="fill:#000000;stroke-width:0" /><path
           id="path1205"
           d="m 1370.6,331.46 v 0 h 0.1 0.1 0.1 0.2 l 0.2,0.01 h 0.3 l 0.3,0.02 0.3,0.01 0.3,0.03 0.3,0.02 0.4,0.04 0.3,0.04 0.4,0.06 0.3,0.06 0.4,0.07 0.3,0.09 0.4,0.09 0.3,0.11 0.4,0.12 0.3,0.14 0.4,0.15 0.3,0.17 0.3,0.18 0.3,0.21 0.1,0.1 0.1,0.12 0.1,0.11 0.2,0.13 0.1,0.12 0.1,0.14 0.1,0.13 0.1,0.15 v 0.14 l 0.1,0.16 0.1,0.16 v 0.16 l 0.1,0.17 v 0.18 l 0.1,0.18 v 0.19 0.19 0.21 c 0,1.89 -1.8,3.06 -4.2,3.06 v -0.97 c 1.5,0 2.5,-0.8 2.5,-2.06 0,-3.41 -5.5,-3.41 -6.9,-3.41 h -1.6 c 1.5,5.41 5.6,5.47 6,5.47 v 0.97 c -3.9,0 -9.4,-3.13 -9.4,-9.27 0,-3.65 2.1,-6.43 5.9,-6.43 5.5,0 8.2,3.26 8.2,3.71 0,0.29 -0.5,0.85 -0.8,0.85 -0.2,0 -0.3,-0.11 -0.5,-0.39 -2.1,-2.53 -5.2,-3.21 -6.9,-3.21 -2.3,0 -3.3,1.93 -3.3,4.11 0,1.08 0.3,2.18 0.5,3.21 z"
           inkscape:connector-curvature="0"
           style="fill:#000000;stroke-width:0" /><path
           id="path1207"
           d="m 1388.8,330 0.1,0.29 0.1,0.28 0.1,0.57 0.1,0.28 v 0.28 l 0.1,0.28 0.1,0.29 c 0.2,0.83 0.6,2.33 2.1,4.08 0.7,0.79 1.7,1.56 3.3,1.56 0.3,0 1.5,-0.03 2.3,-0.59 -0.7,-0.35 -1,-0.97 -1,-1.57 0,-0.98 0.7,-1.18 1.2,-1.18 0.6,0 1.7,0.48 1.7,1.92 0,1.76 -2.1,2.39 -4.2,2.39 -0.9,0 -2.8,-0.06 -4.8,-2.36 -0.6,1.91 -2.4,2.36 -3.3,2.36 -1.5,0 -2.3,-0.97 -2.8,-1.84 -0.8,-1.15 -1.3,-3.27 -1.3,-3.49 0,-0.45 0.4,-0.45 0.7,-0.45 0.6,0 0.7,0.03 0.9,1.01 0.6,2.41 1.3,3.8 2.3,3.8 1.1,0 1.1,-1.25 1.1,-1.67 0,-0.66 -0.4,-2.44 -0.7,-3.66 l -1,-3.76 c -0.1,-0.52 -0.4,-1.85 -0.6,-2.38 -0.1,-0.76 -0.5,-1.98 -0.5,-2.22 0,-0.76 0.6,-1.04 1.1,-1.04 0.8,0 1.2,0.54 1.4,0.82 0.1,0.25 0.4,1.5 0.6,2.24 z"
           inkscape:connector-curvature="0"
           style="fill:#000000;stroke-width:0" /><path
           id="path1209"
           d="m 1407,337.29 h 3.5 c 0.6,0 1,0 1,0.76 0,0.49 -0.4,0.49 -1,0.49 h -3.2 l 1.3,5.01 c 0.1,0.49 0.1,0.56 0.1,0.7 0,0.63 -0.5,1.05 -1.1,1.05 -1.2,0 -1.5,-1.16 -1.5,-1.47 l -1.3,-5.29 h -3.5 c -0.6,0 -1.1,0 -1.1,-0.77 0,-0.48 0.5,-0.48 1,-0.48 h 3.2 l -2.4,-9.66 c -0.1,-0.69 -0.1,-0.94 -0.1,-1.19 0,-2.15 1.7,-3.26 3.5,-3.26 3.7,0 6,4.79 6,5.36 0,0.42 -0.5,0.42 -0.7,0.42 -0.6,0 -0.6,-0.08 -0.8,-0.57 -1.7,-3.68 -3.5,-4.25 -4.4,-4.25 -1.2,0 -1.2,1.3 -1.2,1.65 0,0.59 0.2,1.32 0.2,1.42 z"
           inkscape:connector-curvature="0"
           style="fill:#000000;stroke-width:0" /><path
           id="path1211"
           d="m 1431.1,337.07 v 0.01 0.02 0.01 0.01 0.02 0.01 0.01 0.02 0.01 0.01 0.01 0.01 0.01 0.01 0.01 0.01 0.02 0.02 0.01 0.02 0.01 0.01 0.02 0.01 l 0.1,0.01 v 0.01 0.01 0 0.01 0.01 0.01 0 0.01 0 0.02 0.01 0.01 c 0,0.53 -0.4,1.05 -1.1,1.05 -1.2,0 -1.5,-1.02 -1.6,-1.5 l -2.3,-9.13 c -0.2,-1.02 -1.9,-3.77 -4.3,-3.77 -1.6,0 -2.3,1.19 -2.3,2.83 0,1.99 1.1,4.88 2.1,7.28 0.2,0.66 0.4,1.05 0.4,1.71 0,1.75 -1.4,2.92 -3.2,2.92 -3.4,0 -5,-4.74 -5,-5.33 0,-0.45 0.4,-0.45 0.7,-0.45 0.5,0 0.6,0 0.8,0.45 1,3.8 2.6,4.36 3.4,4.36 0.6,0 0.9,-0.39 0.9,-1.16 0,-0.79 -0.2,-1.36 -0.9,-3.03 -1.2,-3.26 -1.6,-4.87 -1.6,-6.23 0,-3.49 2.6,-4.31 4.6,-4.31 2.1,0 3.4,1.18 4.4,2.18 0.5,-1.7 2.2,-2.18 3.2,-2.18 1.1,0 2,0.51 2.8,1.76 0.8,1.36 1.3,3.45 1.3,3.56 0,0.46 -0.4,0.46 -0.7,0.46 -0.6,0 -0.7,-0.08 -0.9,-0.94 -0.5,-1.81 -1.1,-3.88 -2.3,-3.88 -1,0 -1.2,1.05 -1.2,1.65 0,0.59 0,0.65 0.2,1.46 z"
           inkscape:connector-curvature="0"
           style="fill:#000000;stroke-width:0" /><path
           id="path1213"
           d="m 1442.2,330 0.1,0.29 v 0.28 l 0.2,0.57 0.1,0.28 v 0.28 l 0.1,0.28 0.1,0.29 c 0.2,0.83 0.6,2.33 2.1,4.08 0.7,0.79 1.7,1.56 3.2,1.56 0.4,0 1.6,-0.03 2.4,-0.59 -0.7,-0.35 -1.1,-0.97 -1.1,-1.57 0,-0.98 0.8,-1.18 1.3,-1.18 0.6,0 1.7,0.48 1.7,1.92 0,1.76 -2.1,2.39 -4.2,2.39 -0.9,0 -2.8,-0.06 -4.8,-2.36 -0.6,1.91 -2.4,2.36 -3.3,2.36 -1.5,0 -2.3,-0.97 -2.8,-1.84 -0.8,-1.15 -1.3,-3.27 -1.3,-3.49 0,-0.45 0.4,-0.45 0.7,-0.45 0.6,0 0.7,0.03 0.9,1.01 0.6,2.41 1.3,3.8 2.3,3.8 1.1,0 1.1,-1.25 1.1,-1.67 0,-0.66 -0.4,-2.44 -0.7,-3.66 l -1,-3.76 c -0.1,-0.52 -0.4,-1.85 -0.6,-2.38 -0.1,-0.76 -0.5,-1.98 -0.5,-2.22 0,-0.76 0.6,-1.04 1.1,-1.04 0.8,0 1.2,0.54 1.4,0.82 0.1,0.25 0.4,1.5 0.6,2.24 z"
           inkscape:connector-curvature="0"
           style="fill:#000000;stroke-width:0" /><path
           id="path1215"
           d="m 1461.8,346.69 v 0.01 0.02 0.01 0.02 0.01 0.02 0.02 0.01 0.04 0.03 0.04 0.04 0.03 0.04 l 0.1,0.03 v 0.02 0.01 0.02 0.02 0.01 0.01 0.02 0.01 0.01 0.02 c 0,0.53 -0.6,0.5 -1,0.45 l -3.7,-0.31 c -0.5,-0.03 -0.9,-0.06 -0.9,-0.8 0,-0.48 0.4,-0.48 0.9,-0.48 1.6,0 1.6,-0.25 1.6,-0.57 0,-0.2 0,-0.28 -0.1,-0.76 l -3.4,-13.45 c -0.3,-1.25 -0.3,-2.05 -0.3,-2.5 0,-3.71 2.3,-5.61 4.8,-5.61 v 0.96 c -1.5,0 -2.5,1.25 -2.5,3.52 0,1.86 1.3,6.52 1.5,6.88 1,1.67 2.9,3.37 4.6,3.37 1.7,0 2.4,-1.61 2.4,-3.28 0,-1.59 -1,-5.5 -1.8,-7.14 -1.3,-2.44 -3.1,-3.35 -4.2,-3.35 v 0 -0.96 c 4.3,0 8.7,4.98 8.7,10.03 0,3.48 -2.2,5.67 -5,5.67 -1.9,0 -3.3,-1.14 -4.1,-1.77 z"
           inkscape:connector-curvature="0"
           style="fill:#000000;stroke-width:0" /><path
           id="path1217"
           d="m 1486.3,336.44 v 0.03 0.02 0.02 0.03 0.02 0.02 0.02 0.02 0.02 0.02 l 0.1,0.02 v 0.01 0.02 0.02 0.03 0.03 0.03 0.03 0.02 0.02 0.03 0.02 0.02 0.01 0.02 0.02 0.01 0.02 0.01 0.01 0.02 0.02 0.03 0.02 0.03 c 0,0.76 -0.5,1.04 -1.1,1.04 -1.1,0 -1.5,-1.18 -1.5,-1.28 -0.9,1.42 -2.2,1.94 -3.4,1.94 v -0.97 c 2.4,0 2.8,-3.03 2.8,-3.37 0,-0.11 0,-0.25 -0.1,-0.5 l -1.5,-5.79 c -0.2,-1.07 -1,-1.9 -1.8,-2.67 -1.4,-1.26 -2.5,-1.44 -3,-1.44 -1.6,0 -2.4,1.5 -2.4,3.32 0,1.47 0.8,5.29 1.8,7.17 1.1,2.06 2.8,3.28 4.2,3.28 v 0.97 c -4.3,0 -8.7,-4.91 -8.7,-10 0,-3.72 2.4,-5.7 5,-5.7 2.2,0 4,1.64 4.7,2.36 0.5,-1.68 2.1,-2.36 3.4,-2.36 1.1,0 2,0.51 2.7,1.76 0.9,1.36 1.4,3.45 1.4,3.56 0,0.46 -0.5,0.46 -0.8,0.46 -0.6,0 -0.6,-0.08 -0.9,-0.94 -0.4,-1.81 -1,-3.88 -2.3,-3.88 -1,0 -1.1,1.05 -1.1,1.65 0,0.59 0,0.65 0.2,1.46 z"
           inkscape:connector-curvature="0"
           style="fill:#000000;stroke-width:0" /><path
           id="path1219"
           d="m 1498.3,337.29 h 3.5 c 0.6,0 1,0 1,0.76 0,0.49 -0.4,0.49 -1,0.49 h -3.2 l 1.3,5.01 c 0.1,0.49 0.1,0.56 0.1,0.7 0,0.63 -0.4,1.05 -1.1,1.05 -1.2,0 -1.5,-1.16 -1.5,-1.47 l -1.3,-5.29 h -3.5 c -0.6,0 -1,0 -1,-0.77 0,-0.48 0.4,-0.48 1,-0.48 h 3.2 l -2.5,-9.66 c -0.1,-0.69 -0.1,-0.94 -0.1,-1.19 0,-2.15 1.7,-3.26 3.5,-3.26 3.7,0 6,4.79 6,5.36 0,0.42 -0.5,0.42 -0.7,0.42 -0.6,0 -0.6,-0.08 -0.8,-0.57 -1.6,-3.68 -3.5,-4.25 -4.4,-4.25 -1.2,0 -1.2,1.3 -1.2,1.65 0,0.59 0.2,1.32 0.2,1.42 z"
           inkscape:connector-curvature="0"
           style="fill:#000000;stroke-width:0" /><path
           id="path1221"
           d="m 1514.6,345.22 v 0.07 0.07 0.06 l -0.1,0.07 v 0.06 0.06 0.06 0.05 0.06 l -0.1,0.05 v 0.05 0.05 l -0.1,0.05 v 0.04 0.05 l -0.1,0.04 v 0.04 l -0.1,0.03 v 0.04 0.03 l -0.1,0.03 v 0.03 l -0.1,0.02 -0.1,0.02 v 0.02 l -0.1,0.02 v 0.02 l -0.1,0.01 v 0.01 l -0.1,0.01 h -0.1 v 0 c -1,0 -1.8,-0.9 -1.8,-1.67 0,-0.63 0.4,-1.22 1.3,-1.22 0.9,0 1.7,0.84 1.7,1.67 z"
           inkscape:connector-curvature="0"
           style="fill:#000000;stroke-width:0" /><path
           id="path1223"
           d="m 1509.5,332.13 v -0.07 l -0.1,-0.07 v -0.07 -0.08 -0.09 l -0.1,-0.09 v -0.09 -0.09 l -0.1,-0.1 v -0.1 l -0.1,-0.11 v -0.11 l -0.1,-0.21 -0.1,-0.23 -0.1,-0.23 -0.1,-0.23 v -0.23 l -0.1,-0.22 -0.1,-0.22 -0.1,-0.11 v -0.11 -0.1 l -0.1,-0.1 v -0.1 -0.09 c -0.4,-0.91 -0.9,-2.16 -0.9,-2.78 0,-1.61 1.3,-2.92 3.1,-2.92 3.5,0 5.1,4.76 5.1,5.32 0,0.46 -0.5,0.46 -0.7,0.46 -0.7,0 -0.7,-0.11 -0.9,-0.74 -0.4,-1.67 -1.6,-4.08 -3.4,-4.08 -0.8,0 -0.8,0.85 -0.8,1.19 0,0.83 0.6,2.33 1.1,3.46 0.3,1.07 2.1,5.5 2.3,6.03 0.2,0.57 0.2,0.68 0.2,1.14 0,1.56 -1.3,2.92 -3.2,2.92 -3.4,0 -5,-4.7 -5,-5.33 0,-0.45 0.5,-0.45 0.7,-0.45 0.5,0 0.7,0 0.8,0.45 1.1,4.05 2.8,4.36 3.4,4.36 0.4,0 0.9,-0.11 0.9,-1.19 0,-0.76 -0.3,-1.45 -0.6,-2.18 z"
           inkscape:connector-curvature="0"
           style="fill:#000000;stroke-width:0" /><path
           id="path1225"
           d="m 1535.2,332.89 -0.1,0.32 v 0.31 0.3 l -0.1,0.3 v 0.29 l -0.1,0.29 -0.1,0.28 -0.1,0.27 -0.1,0.27 -0.1,0.26 -0.1,0.25 -0.2,0.24 -0.1,0.24 -0.2,0.22 -0.2,0.22 -0.2,0.2 -0.2,0.2 -0.2,0.19 -0.2,0.17 -0.2,0.17 -0.3,0.15 -0.2,0.14 -0.3,0.13 -0.3,0.12 -0.2,0.1 -0.3,0.1 -0.3,0.07 -0.3,0.07 -0.3,0.05 -0.3,0.04 -0.4,0.02 -0.3,0.01 c -5,0 -9.7,-4.84 -9.7,-9.72 0,-3.55 2.5,-5.98 6,-5.98 v 0.96 c -1,0 -3.2,0.49 -3.2,3.83 0,1.55 0.7,5.21 2.3,7.36 1.2,1.64 3,2.58 4.6,2.58 1.2,0 3.2,-0.73 3.2,-3.83 0,-1.19 -0.5,-4.53 -2,-6.9 -1.1,-1.68 -3.1,-3.04 -4.9,-3.04 v 0 -0.96 c 4.9,0 9.7,4.87 9.7,9.71 z"
           inkscape:connector-curvature="0"
           style="fill:#000000;stroke-width:0" /><path
           id="path1227"
           d="m 1546.6,335.93 -0.1,0.19 v 0.19 0.18 l -0.1,0.17 -0.1,0.17 v 0.16 l -0.1,0.15 -0.1,0.14 -0.1,0.14 -0.1,0.13 -0.1,0.13 -0.1,0.11 -0.1,0.12 -0.1,0.1 -0.1,0.1 -0.1,0.09 -0.2,0.08 -0.1,0.08 -0.1,0.08 -0.2,0.06 -0.1,0.07 -0.1,0.05 -0.2,0.05 -0.1,0.05 -0.1,0.04 -0.2,0.03 -0.1,0.03 -0.2,0.02 -0.1,0.02 -0.1,0.01 -0.2,0.01 h -0.1 c -1.5,0 -2.3,-0.97 -2.8,-1.84 -0.7,-1.15 -1.3,-3.27 -1.3,-3.49 0,-0.45 0.5,-0.45 0.8,-0.45 0.6,0 0.6,0.03 0.9,1.01 0.6,2.41 1.2,3.8 2.3,3.8 1.1,0 1.1,-1.25 1.1,-1.67 0,-0.66 -0.5,-2.44 -0.7,-3.66 l -1,-3.76 c -0.1,-0.52 -0.5,-1.85 -0.6,-2.38 -0.2,-0.76 -0.5,-1.98 -0.5,-2.22 0,-0.76 0.6,-1.04 1.1,-1.04 1.2,0 1.4,1.04 1.6,1.56 0.1,0.59 0.6,2.33 0.8,3.11 0.1,0.51 0.4,1.84 0.5,2.36 0.1,0.34 0.6,2.09 0.6,2.34 0.1,0.2 1.1,2.5 2.5,3.83 1.1,0.94 2.3,1.53 3.7,1.53 1.6,0 2,-1.22 2,-2.37 0,-2.05 -1.6,-6.27 -2.2,-7.88 -0.4,-0.86 -0.4,-1.11 -0.4,-1.56 0,-1.88 1.5,-2.92 3.1,-2.92 3.5,0 5.1,4.76 5.1,5.32 0,0.46 -0.5,0.46 -0.8,0.46 -0.6,0 -0.6,-0.11 -0.8,-0.74 -0.6,-2.15 -1.9,-4.08 -3.4,-4.08 -0.5,0 -0.9,0.25 -0.9,1.19 0,0.77 0.4,1.53 0.6,2.33 0.7,1.64 2.1,5.44 2.1,7.36 0,2.72 -1.9,3.86 -4.3,3.86 -2.7,0 -4.6,-1.63 -5.6,-2.95 z"
           inkscape:connector-curvature="0"
           style="fill:#000000;stroke-width:0" /></g>    </g>
  </g>
</svg>
